<svg xmlns="http://www.w3.org/2000/svg" width="89.855" height="17.63" viewBox="0 0 89.855 17.63">
  <g id="Group_33" data-name="Group 33" transform="translate(-1537.5 -1203.37)">
    <text id="SHARE" transform="translate(1604.5 1218)" fill="#fff" font-size="16" font-family="ReadyPlayerOne, Ready Player One"><tspan x="-65.961" y="0">SHARE</tspan></text>
    <path id="Icon_material-share" data-name="Icon material-share" d="M16.429,14.2a2.316,2.316,0,0,0-1.559.612l-5.67-3.3a2.2,2.2,0,0,0,0-1.113l5.606-3.268a2.38,2.38,0,1,0-.763-1.742,2.6,2.6,0,0,0,.072.557L8.508,9.211a2.386,2.386,0,1,0,0,3.483L14.17,16a2.244,2.244,0,0,0-.064.517A2.322,2.322,0,1,0,16.429,14.2Z" transform="translate(1608.541 1200.37)" fill="#fff"/>
  </g>
</svg>
