<?xml version="1.0"?>
<!DOCTYPE svg PUBLIC "-//W3C//DTD SVG 1.1//EN" "http://www.w3.org/Graphics/SVG/1.1/DTD/svg11.dtd">
<svg xmlns="http://www.w3.org/2000/svg" version="1.1" width="2048" height="2048">
<path d="M185.16 170.92C184.74 170.92 183.81 170.88 183.69 171.72C182.68 177.85 181.13 191.25 181.13 201.54C181.13 208.42 181.80 211.45 184.23 211.45C185.87 211.45 186.63 207.29 186.63 204.73C186.63 201.96 186.21 198.60 185.45 195.82C188.52 195.82 189.36 188.56 189.36 186.71C189.36 186.37 189.23 186.16 188.98 186.16C188.73 186.16 188.60 186.37 188.60 186.71C188.60 188.94 187.43 194.65 185.45 194.65C185.33 194.65 185.16 194.65 185.03 194.61C184.86 194.06 184.65 193.51 184.44 193.05C183.90 191.92 183.35 191.50 182.93 191.50C182.85 191.50 182.81 191.50 182.76 191.54C183.18 186.00 183.90 181.12 184.70 175.29C184.86 174.03 185.24 172.81 185.45 172.39C185.66 171.97 185.96 171.67 185.96 171.46C185.96 171.25 185.58 170.92 185.16 170.92ZM184.19 195.24C185.37 197.97 185.58 201.41 185.58 204.31C185.58 206.70 185.03 210.40 183.94 210.40C183.23 210.40 182.34 207.63 182.34 202.67C182.34 199.23 182.43 196.24 182.64 193.43C182.97 194.06 183.56 194.77 184.19 195.24Z"/>
<path d="M199.85 132.11C199.18 132.11 199.01 132.27 198.92 132.82C198.84 133.37 198.46 141.72 198.46 143.36C198.46 144.45 198.55 146.22 198.63 147.98C193.93 149.12 187.88 152.22 187.88 155.50C187.88 158.73 191.99 160.67 194.77 160.67C198.17 160.67 200.18 158.69 200.18 154.41C200.18 152.81 199.97 150.67 199.81 148.74C200.56 148.57 201.19 148.53 201.78 148.53C203.46 148.53 204.34 148.82 204.76 149.03C205.43 149.37 205.90 148.70 205.27 148.28C204.72 147.90 203.80 147.56 201.82 147.56C201.19 147.56 200.48 147.65 199.72 147.77C199.68 146.89 199.64 146.09 199.64 145.46C199.64 141.60 200.48 134.92 200.69 134.21C200.90 133.49 201.02 133.16 201.02 132.86C201.02 132.32 200.52 132.11 199.85 132.11ZM198.97 153.65C198.97 157.22 198 159.78 194.93 159.78C193.00 159.78 189.05 158.48 189.05 155.84C189.05 152.81 194.51 150.04 198.71 148.99C198.84 151.13 198.97 153.11 198.97 153.65ZM200.98 122.24C200.39 122.24 199.89 122.99 199.89 123.62C199.89 124.25 200.65 124.67 201.07 124.67C201.61 124.67 202.16 123.83 202.16 123.24C202.16 122.66 201.57 122.24 200.98 122.24Z"/>
<path d="M198.39 56.09C198.06 56.09 197.72 56.43 197.72 56.77C197.72 57.10 197.85 58.78 197.85 59.71C197.85 60.63 197.13 70.88 197.13 72.81C197.13 78.61 199.36 81.13 202.59 81.13C205.87 81.13 208.05 76.21 208.77 71.13C208.85 73.86 209.02 77.89 209.02 79.28C209.02 87.38 206.16 90.74 202.30 90.74C198.81 90.74 197.34 87.26 195.41 87.26C194.82 87.26 194.53 87.59 194.53 87.97C194.53 89.74 201.04 91.79 203.43 91.79C207.59 91.79 210.87 87.51 210.87 81.88C210.87 78.44 210.28 73.06 210.28 70.16C210.28 61.93 211.96 55.84 211.96 55.51C211.96 55.17 210.62 54.37 210.32 54.37C210.03 54.37 209.61 54.71 209.61 54.96C209.61 60.55 208.35 80.12 202.43 80.12C199.95 80.12 198.86 78.19 198.86 72.22C198.86 67.22 200.28 58.24 200.28 57.86C200.28 57.14 198.98 56.09 198.39 56.09Z"/>
<path d="M213.58 169.12C213.92 168.49 214.09 167.86 213.54 167.61C213.16 167.44 212.49 167.82 212.24 168.32C206.90 179.07 201.02 191.72 197.16 201.17C196.99 201.63 197.03 201.92 197.20 202.05C197.37 202.17 197.79 202.09 198 201.63C201.78 192.72 208.29 179.03 213.58 169.12Z"/>
<path d="M213.58 243.49C208.29 233.58 201.78 219.89 198 210.99C197.79 210.52 197.37 210.44 197.20 210.57C197.03 210.69 196.99 210.99 197.16 211.45C201.02 220.90 206.90 233.54 212.24 244.29C212.49 244.80 213.16 245.17 213.54 245.01C214.09 244.75 213.92 244.12 213.58 243.49Z"/>
<path d="M229.63 99.16C228.87 99.16 228.32 100.09 228.32 100.72C228.32 104.62 226.69 112.69 224.88 116.84C222.32 122.81 219.92 125.79 217.28 125.79C216.61 125.79 214.84 125.24 214.55 125.24C214.25 125.24 214.13 125.37 214.13 125.58C214.13 125.79 216.44 127.26 217.57 127.26C223.70 127.26 227.48 112.27 229.42 106.97C230.26 116.80 231.81 125.41 235.09 125.41C237.86 125.41 241.64 112.01 243.07 105.42C242.69 114.62 242.73 128.77 247.39 128.77C247.77 128.77 248.15 128.44 248.15 128.23C248.15 128.02 247.94 127.76 247.64 127.72C245.96 127.47 244.87 123.77 244.87 116.51C244.87 107.69 246.38 101.09 246.38 100.84C246.38 100.46 244.96 99.75 243.74 99.75C243.11 99.75 242.60 99.96 242.60 100.55C242.60 106.26 237.19 123.40 235.25 123.40C233.36 123.40 231.68 114.07 231.68 105.42C231.68 104.16 232.06 101.05 232.06 100.55C232.06 100.09 230.38 99.16 229.63 99.16Z"/>
<path d="M220.86 30.90C220.86 34.98 220.98 37.16 220.98 46.65C220.98 52.66 220.48 60.60 220.48 62.65C220.48 63.20 220.90 63.66 221.61 63.79C223.80 64.12 227.28 64.12 227.28 63.24C227.28 62.86 225.94 63.16 224.72 63.16C222.87 63.16 222.07 62.44 222.07 61.73C222.07 59.13 222.45 54.97 222.45 46.78C222.45 36.87 222.45 32.88 222.70 30.94C222.70 30.73 223.12 30.52 224.26 30.40C225.10 30.31 226.44 30.23 227.07 30.19C227.83 30.15 227.28 29.56 226.82 29.56C225.98 29.56 224.17 29.68 222.07 29.81C221.19 29.89 220.86 30.40 220.86 30.90Z"/>
<path d="M241.38 35.77C241.13 30.10 240.96 25.36 240.96 18.68C240.96 12.25 241.34 5.45 241.34 4.82C241.34 4.27 240.88 3.52 239.62 3.60C236.89 3.73 234.54 4.27 234.54 4.82C234.54 5.36 235.88 4.78 237.10 4.61C239.03 4.36 239.70 4.69 239.75 5.03C239.83 5.66 239.54 12.17 239.54 19.35C239.54 25.94 240.00 33.84 239.20 36.49C238.99 37.12 238.28 37.12 237.14 37.12C236.76 37.12 235.97 37.07 235.38 36.99C234.41 36.82 234.20 37.62 235.46 37.75C236.81 37.87 238.11 37.91 239.28 37.91C241.09 37.91 241.47 37.37 241.38 35.77Z"/>
<path d="M236.56 51.27C237.49 54.38 238.07 55.76 238.12 57.95C238.20 61.31 236.69 61.77 235.13 62.06C234.55 62.15 234.34 63.62 234.71 63.58C236.94 63.20 238.24 64.08 238.24 66.35C238.24 68.74 237.57 70.30 236.77 73.57C235.64 78.19 237.61 79.20 238.75 79.45C240.89 79.91 243.24 79.75 243.24 79.28C243.24 78.74 241.90 79.07 240.68 78.91C238.83 78.65 237.57 77.56 238.12 74.79C238.79 71.35 239.42 68.78 239.42 66.22C239.42 64.54 238.54 62.57 236.35 62.57C238.54 62.19 239.67 59.59 239.67 57.74C239.67 54.92 238.83 53.20 237.95 50.01C237.57 48.29 237.78 47.49 238.79 47.03C239.92 46.48 241.22 46.40 242.06 46.31C242.82 46.23 242.40 45.73 241.94 45.73C241.10 45.73 239.59 45.77 238.45 46.19C236.56 46.90 235.89 48.58 236.56 51.27Z"/>
<path d="M250.29 4.10C250.29 11.66 249.87 23.34 249.87 30.02C249.87 31.45 249.91 36.23 249.91 37.24C249.91 37.54 251.51 37.54 251.51 36.78C251.51 36.15 251.30 32.03 251.30 29.35C251.30 26.28 251.68 9.48 252.35 4.36C252.43 3.60 250.29 3.64 250.29 4.10Z"/>
<path d="M259.05 74.37C258.12 71.26 257.54 69.88 257.49 67.69C257.41 64.92 258.63 63.66 260.73 63.53C261.06 63.53 260.85 62.02 260.27 62.15C258.67 62.48 257.37 61.56 257.37 59.29C257.37 56.90 258.04 55.34 258.84 52.07C259.97 47.45 258.25 45.94 255.90 45.94C253.71 45.94 252.37 46.44 252.37 46.90C252.37 47.45 253.67 46.73 255.18 46.73C256.70 46.73 258.04 48.08 257.49 50.85C256.82 54.29 255.86 56.86 255.86 59.42C255.86 61.10 257.07 63.07 259.26 63.07C257.07 63.45 256.32 66.05 256.32 67.90C256.32 70.72 256.86 72.40 257.45 74.79C257.96 76.85 257.83 78.15 256.57 78.74C255.69 79.16 254.09 79.24 253.25 79.33C252.50 79.41 252.92 79.91 253.38 79.91C254.22 79.91 256.02 79.87 257.16 79.45C259.05 78.74 259.72 77.06 259.05 74.37Z"/>
<path d="M264.51 3.98C263.88 3.98 263.54 4.48 262.87 6.33C262.20 8.18 260.14 13.47 260.14 20.53C260.14 27.58 262.45 34.09 263.38 35.48C264.30 36.86 265.85 37.20 266.23 37.20C266.61 37.20 266.74 37.16 266.74 36.99C266.74 36.82 266.48 36.78 266.11 36.53C262.96 34.39 261.49 24.39 261.49 20.44C261.49 14.27 264.01 7.04 265.18 5.70C265.52 5.32 265.85 5.11 265.85 4.86C265.85 4.61 265.14 3.98 264.51 3.98Z"/>
<path d="M183.81 219.89C183.34 219.89 183.01 220.10 183.01 220.44C183.01 220.78 183.22 221.03 183.85 222.71C185.23 226.36 186.70 231.23 186.70 238.54C186.70 245.64 185.15 250.51 184.39 251.77C183.89 252.61 183.43 252.57 183.43 252.82C183.43 253.07 183.81 253.24 184.10 253.24C184.65 253.24 185.57 252.40 186.07 251.14C186.87 249.21 188.05 245.39 188.05 239.76C188.05 234.89 186.75 226.19 185.78 222.88C185.65 222.50 185.61 221.70 185.61 221.20C185.61 220.36 184.39 219.89 183.81 219.89Z"/>
<path d="M241.44 137.32C239.04 137.32 237.24 143.92 236.57 151.14C235.26 151.52 234.09 151.77 233.21 151.90C232.62 151.98 232.11 151.48 231.90 151.48C231.69 151.48 231.44 151.90 231.44 152.15C231.44 152.40 232.41 152.82 233.46 152.82C234.26 152.82 235.31 152.65 236.44 152.32L236.31 154.79C236.23 156.85 236.06 158.57 235.81 160.00C232.07 157.78 228.17 156.01 224.34 156.01C222.62 156.01 221.53 157.27 221.53 158.49C221.53 162.44 226.19 166.47 229.55 166.47C233.12 166.47 235.43 165.17 236.78 162.02C241.61 165.13 246.18 168.61 248.75 168.61C249.29 168.61 250.55 168.36 250.55 168.19C250.55 168.07 250.43 167.94 249.67 167.94C249.04 167.94 247.91 167.69 246.94 167.14C244 165.50 240.68 163.07 237.20 160.88C237.74 159.25 238.04 157.19 238.20 154.71C238.25 153.79 238.37 152.74 238.50 151.60C242.61 150.01 247.11 147.11 247.11 144.92C247.11 141.98 243.96 137.32 241.44 137.32ZM231.32 165.34C226.19 165.34 223.21 160.63 223.21 158.53C223.21 157.23 224.64 157.19 225.39 157.19C228.42 157.19 232.03 159.04 235.56 161.22C234.84 164.03 233.54 165.34 231.32 165.34ZM242.49 139.21C243.87 139.21 245.01 141.65 245.01 143.66C245.01 145.60 244.38 147.02 242.61 148.33C241.44 149.17 240.05 149.88 238.62 150.43C239.38 145.22 240.81 139.21 242.49 139.21Z"/>
<path d="M256.76 118.32C256.76 118.61 256.97 118.78 257.18 118.78C257.39 118.78 257.60 118.57 257.77 118.44C258.28 118.02 259.75 117.48 262.94 117.48C267.05 117.48 270.29 117.98 271.13 117.98C271.67 117.98 272.01 117.73 272.01 117.35C272.01 117.18 271.80 117.14 271.04 117.14C269.87 117.14 268.06 116.64 266.42 116.22C270.50 114.16 272.09 107.73 272.09 100.09C272.09 94.88 271.30 92.15 269.87 90.81C268.10 89.17 265.37 87.99 262.98 87.99C258.32 87.99 255.84 97.15 255.84 104.71C255.84 111.35 258.11 114.83 260.59 116.22C258.57 116.68 256.76 117.56 256.76 118.32ZM264.66 89.51C265.79 89.51 266.38 89.76 267.31 90.77C267.89 91.40 268.69 90.98 269.28 92.74C270.04 95.01 270.46 98.16 270.46 100.93C270.46 110.88 266.93 115.50 263.65 115.50C261.09 115.50 257.90 113.70 257.90 106.10C257.90 97.74 260.92 89.51 264.66 89.51Z"/>
<path d="M278.07 45.26C276.60 45.26 274.62 53.53 274.62 56.60C274.62 60.50 275.97 61.34 277.10 61.34C278.40 61.34 279.33 59.41 279.79 57.82L279.79 58.61C279.79 59.20 279.96 61.22 280.12 63.32C278.44 63.61 276.64 64.07 274.92 64.79C271.72 66.05 269.29 67.60 269.29 70.04C269.29 74.15 273.45 76.09 276.43 76.09C280.25 76.09 281.43 72.31 281.43 67.22C281.43 66.13 281.34 65.04 281.30 63.99C282.18 63.86 282.94 63.82 283.61 63.82C285.63 63.82 286.09 64.20 286.63 64.20C287.05 64.20 287.18 64.12 287.18 63.65C287.18 63.19 286.30 62.90 284.45 62.90C283.48 62.90 282.39 62.94 281.22 63.11C281.09 61.30 280.92 59.66 280.92 58.61C280.92 55.13 281.59 51.85 282.39 49.92C282.60 49.42 282.81 49.21 282.81 49.04C282.81 48.87 282.35 48.28 281.68 48.28C280.96 47.74 280.63 47.27 280.00 46.48C279.37 45.68 278.78 45.26 278.07 45.26ZM280.46 68.02C280.46 71.59 279.20 74.83 275.80 74.83C272.77 74.83 270.46 72.81 270.46 70.46C270.46 67.06 275.92 64.96 280.21 64.16C280.33 65.84 280.46 67.39 280.46 68.02ZM276.97 60.59C276.43 60.59 275.84 58.95 275.84 57.61C275.84 55.25 277.56 46.98 278.78 46.98C279.20 46.98 280.29 48.07 280.71 49.00C280.63 52.40 278.44 60.59 276.97 60.59Z"/>
<path d="M279.89 6.19C279.43 6.19 279.05 6.65 279.01 7.32C278.97 8.00 278.55 12.87 278.55 14.59C278.55 18.75 279.51 19.76 281.11 19.76C282.41 19.76 283.38 17.40 283.96 15.14C284.09 17.32 284.30 20.26 284.43 22.82C280.27 24.21 275.23 27.15 275.23 31.26C275.23 33.99 277.71 35.63 279.76 35.63C283.50 35.63 285.81 32.61 285.81 27.44C285.81 26.81 285.73 25.22 285.60 23.37C286.74 23.07 287.74 22.91 288.58 22.91C289.21 22.91 290.22 23.07 290.35 23.07C290.47 23.07 290.73 23.03 290.73 22.86C290.73 22.53 290.22 21.90 288.88 21.90C288.12 21.90 286.90 22.07 285.52 22.49C285.35 19.76 285.18 16.73 285.18 15.22C285.18 12.53 285.60 7.83 285.81 6.99C286.02 6.15 286.23 5.52 286.23 5.14C286.23 4.76 285.90 4.43 285.56 4.43C285.22 4.43 284.59 4.64 284.38 6.19C284.17 7.79 283.96 10.22 283.67 12.03C283.00 15.89 281.95 18.92 280.98 18.92C280.39 18.92 279.89 17.87 279.89 15.01C279.89 13.41 280.39 8.71 280.52 8.16C280.65 7.62 280.69 7.11 280.69 6.86C280.69 6.61 280.35 6.19 279.89 6.19ZM284.55 26.10C284.55 32.15 282.16 34.79 279.55 34.79C278.17 34.79 276.53 33.70 276.53 31.47C276.53 27.86 280.69 25.05 284.47 23.75C284.51 24.63 284.55 25.43 284.55 26.10Z"/>
<path d="M227.99 176.30C225.34 176.30 224.92 178.95 224.92 181.30C224.92 181.59 225.05 181.76 225.30 181.76C225.47 181.76 225.68 181.63 225.68 181.30C225.68 180.21 227.28 177.43 228.79 177.43C230.01 177.43 230.43 178.57 230.43 180.29C230.43 183.48 228.54 188.19 226.98 190.37C226.81 190.33 226.69 190.33 226.52 190.33C225.39 190.33 224.80 190.83 224.80 191.42C224.80 192.01 225.51 192.39 226.06 192.39C226.52 192.39 227.07 192.05 227.61 191.46C229.00 191.84 229.96 193.02 230.47 194.65C226.31 196.04 221.82 199.48 221.82 203.01C221.82 205.91 224.46 207.55 227.11 207.55C230.09 207.55 232.15 203.73 232.15 198.60C232.15 197.38 231.98 196.21 231.64 195.16C232.27 195.03 232.86 194.95 233.45 194.95C234.25 194.95 235.51 195.20 235.68 195.20C235.84 195.20 236.10 195.12 236.10 194.95C236.10 194.70 235.55 194.02 233.95 194.02C233.16 194.02 232.27 194.15 231.39 194.36C230.72 192.64 229.63 191.29 228.24 190.71C229.96 188.44 231.69 184.24 231.69 180.42C231.69 178.61 231.39 177.81 230.38 177.06C229.71 176.55 229.08 176.30 227.99 176.30ZM230.89 197.76C230.89 202.84 229.12 206.62 226.23 206.62C224.76 206.62 223.20 205.83 223.20 203.43C223.20 200.11 227.02 196.71 230.68 195.45C230.80 196.17 230.89 196.92 230.89 197.76Z"/>
<path d="M229.94 234.44C229.94 234.86 230.82 234.82 232.84 234.82L233.68 234.82C231.28 238.98 228.47 242.17 225.66 242.17C224.40 242.17 223.39 241.79 223.01 241.24C222.93 241.12 222.76 240.82 222.55 240.82C222.34 240.82 222.13 241.08 222.13 241.37C222.13 242.71 224.90 244.18 226.79 244.18C229.48 244.18 232.59 239.82 235.23 234.78C238.55 234.65 242.75 234.27 244.89 233.98C245.61 237.30 246.11 239.10 247.03 241.29C247.66 242.88 248.04 243.26 249.30 243.26C249.68 243.26 250.10 243.18 250.10 242.97C250.10 242.63 249.76 242.71 249.22 241.66C248.08 239.56 246.74 234.40 246.11 231.04C245.31 226.63 244.77 220.37 244.77 219.32C244.77 218.27 244.98 217.68 244.98 217.22C244.98 216.76 242.75 215.50 242.20 215.50C241.66 215.50 241.07 216.00 241.07 216.21C241.07 216.42 241.15 217.30 240.73 218.48C239.56 221.84 237.25 228.31 234.35 233.64C231.75 233.89 229.94 234.23 229.94 234.44ZM240.94 221.29C241.28 220.16 241.78 219.32 242.25 218.73C242.79 222.18 244.26 230.87 244.72 233.22C244.14 233.18 243.51 233.18 243.00 233.18C240.61 233.18 238.09 233.31 235.90 233.47C238.34 228.64 240.27 223.52 240.94 221.29Z"/>
<path d="M258.83 176.41C255.39 176.41 251.78 176.79 249.01 177.17C248.92 176.16 248.29 175.87 247.49 175.87C247.20 175.87 246.99 176.37 246.95 177.46L244.64 177.84C244.18 177.93 243.59 178.01 243.59 178.39C243.59 178.77 244.39 179.19 246.86 179.19C246.70 183.26 246.15 193.97 246.15 195.86C246.15 202.08 246.57 203.55 246.78 203.88C246.99 204.22 247.54 204.51 247.91 204.51C248.29 204.51 248.33 204.39 248.33 203.97C248.33 203.71 248.29 203.46 248.29 203.17C249.80 204.18 251.86 205.14 254.55 205.14C257.78 205.14 263.83 200.56 263.83 195.19C263.83 191.66 260.30 189.18 256.86 189.06C260.72 187.67 266.77 184.52 266.77 181.58C266.77 178.81 262.95 176.41 258.83 176.41ZM247.96 195.86C247.96 194.64 247.96 193.47 248.00 192.37C249.93 190.90 253.88 190.40 256.44 190.40C260.39 190.40 262.28 192.08 262.28 194.89C262.28 198.13 257.70 203.92 253.42 203.92C251.48 203.92 249.93 202.29 248.17 201.95C248.04 200.73 247.96 198.88 247.96 195.86ZM248.88 178.93C251.27 178.51 254.97 177.72 259.09 177.72C262.24 177.72 264.97 178.68 264.97 180.70C264.97 184.81 255.85 189.48 248.04 190.02C248.25 184.86 248.67 180.95 248.88 178.93Z"/>
<path d="M269.80 213.50C268.71 213.50 268.00 214.00 268.00 214.76C268.00 216.69 267.58 221.86 266.78 227.06C265.73 234.04 263.88 241.13 260.06 241.13C259.60 241.13 258.97 240.71 258.97 240.59C258.97 240.46 258.97 240.21 258.80 240.21C258.63 240.21 258.13 240.38 258.13 240.84C258.13 241.64 259.22 242.23 261.28 242.23C267.45 242.23 267.87 226.06 269.26 217.74C270.39 226.69 272.95 241.47 276.73 241.47C277.91 241.47 278.88 241.13 278.88 240.63C278.88 240.29 278.75 238.11 278.75 236.81C278.75 229.75 279.63 222.36 280.43 217.91C280.81 215.68 281.40 214.46 281.40 213.92C281.40 213.54 281.19 213.08 280.89 213.08C280.51 213.08 280.05 213.71 279.67 214.93C278.58 218.50 277.49 230.80 277.49 236.85C277.49 238.53 277.24 239.12 276.82 239.12C274.17 239.12 271.69 225.97 271.69 214.67C271.69 214.30 270.90 213.50 269.80 213.50Z"/>
<path d="M265.48 127.12C263.12 127.12 258.84 136.44 258.84 144.13C258.84 153.20 263.17 155.64 266.40 155.64C272.78 155.64 275.30 147.78 275.30 138.42C275.30 130.65 272.83 127.12 265.48 127.12ZM267.87 128.34C272.24 128.34 273.79 133.55 273.79 138.84C273.79 149.17 271.02 154.34 266.40 154.34C263.46 154.34 260.98 152.82 260.98 145.89C260.98 138.84 264.22 128.34 267.87 128.34Z"/>
<path d="M307.37 83.67C305.14 83.67 290.06 84.22 282.80 85.44C280.57 85.82 279.82 86.36 279.82 87.37C279.82 90.27 281.37 91.02 284.31 91.02C288.64 91.02 292.16 89.72 292.16 88.88C292.16 88.71 292.25 88.59 292.08 88.59C291.53 88.59 289.48 89.76 284.10 89.76C282.04 89.76 281.08 89.13 281.08 88.46C281.08 87.75 281.71 87.20 284.65 86.74C287.21 86.32 290.69 85.98 294.14 85.73C294.10 95.73 293.13 102.41 293.13 106.98C293.13 109.80 294.01 110.26 294.77 110.26C295.06 110.26 295.23 110.01 295.23 109.80C295.23 109.59 294.89 109.34 294.89 107.95C294.89 101.36 296.07 88.59 297.25 85.52C302.71 85.14 307.41 84.98 307.58 84.98C308.00 84.98 308.96 84.77 308.96 84.35C308.96 83.93 308.17 83.67 307.37 83.67Z"/>
<path d="M303.57 43.33C299.87 43.33 295.30 53.24 295.30 55.93C295.30 56.35 295.42 56.73 295.67 56.73C295.93 56.73 296.14 56.48 296.22 56.06C296.64 53.49 301.34 44.84 303.99 44.84C304.96 44.84 305.42 45.77 305.42 47.70C305.42 49.17 304.58 58.16 304.58 60.84C304.58 68.87 307.48 71.64 310.12 71.64C316.17 71.64 317.60 52.82 317.60 44.63C317.60 43.54 317.22 42.95 316.59 42.95C316.25 42.95 316.30 43.46 316.30 44.00C316.30 56.18 313.61 70.29 309.83 70.29C307.94 70.29 306.51 66.26 306.51 61.14C306.51 58.37 307.27 51.02 307.27 48.79C307.27 45.56 306.22 43.33 303.57 43.33Z"/>
<path d="M299.56 5.30C299.02 5.30 298.64 5.88 298.64 6.22C298.64 6.56 298.22 16.47 298.22 18.99C298.22 26.88 300.44 32.51 303.47 32.51C305.95 32.51 307.50 27.98 308.17 23.61C308.63 28.10 309.94 31.80 313.13 31.80C317.54 31.80 319.72 19.24 319.72 11.68C319.72 6.93 319.60 3.62 317.96 3.62C317.58 3.62 317.66 3.87 317.66 4.08C317.66 4.29 318.46 6.05 318.46 11.22C318.46 19.83 315.48 30.58 312.79 30.58C311.28 30.58 309.60 26.97 309.60 21.63C309.60 11.18 310.90 9.29 310.90 8.91C310.90 8.53 310.10 8.03 308.76 8.03C308.34 8.03 308.05 8.32 308.05 8.61C308.05 8.91 308.17 11.39 308.17 12.48C308.17 20.29 306.66 30.83 303.38 30.83C301.45 30.83 299.90 26.63 299.90 18.65C299.90 11.64 301.37 7.40 301.37 6.72C301.37 5.84 300.23 5.30 299.56 5.30Z"/>
<path d="M290.00 181.17C289.33 181.17 286.52 181.30 284.21 181.38C283.49 180.12 282.86 178.78 282.32 177.43L283.03 176.72C285.80 173.95 287.94 171.60 287.94 168.70C287.94 166.18 285.51 164.12 283.32 164.12C281.39 164.12 279.46 166.72 279.46 170.29C279.46 172.44 279.96 174.62 280.72 176.72C278.20 179.45 275.18 182.52 275.18 186.09C275.18 189.32 277.74 191.59 280.47 191.59C283.07 191.59 285.47 190.12 287.44 188.27C288.36 189.36 289.12 190.20 289.67 190.71C290.25 191.25 290.63 191.71 291.18 191.71C291.72 191.71 292.14 191.55 292.14 191.34C292.14 191.13 291.85 191 291.56 191C291.26 191 290.59 190.33 290.00 189.61C289.46 188.98 288.87 188.23 288.28 187.47C290.09 185.58 291.51 183.57 292.44 182.35C293.99 182.35 295.42 182.31 295.59 182.31C295.92 182.31 296.30 182.31 296.30 182.05C296.30 181.80 296.05 181.26 294.83 181.21C293.61 181.17 291.14 181.17 290.00 181.17ZM282.86 181.42C281.81 181.47 281.06 181.51 280.93 181.51C280.43 181.55 280.26 181.72 280.26 182.05C280.26 182.39 280.55 182.56 281.18 182.60C281.39 182.64 282.36 182.60 283.49 182.56C284.54 184.32 285.63 185.92 286.68 187.26C285.05 188.90 282.86 190.41 280.64 190.41C278.54 190.41 276.44 189.24 276.44 186.76C276.44 184.03 278.96 180.92 281.35 178.40C281.81 179.45 282.32 180.46 282.86 181.42ZM281.01 170.71C281.01 166.85 282.86 165.04 284.04 165.04C285.05 165.04 286.73 166.51 286.73 168.15C286.73 170.50 284.08 173.11 281.73 175.63C281.27 174.03 281.01 172.35 281.01 170.71ZM284.84 182.52C286.47 182.43 288.11 182.35 288.62 182.35L289.67 182.35C289.71 182.85 289.58 183.44 288.87 184.53C288.49 185.08 288.03 185.75 287.44 186.42C286.56 185.20 285.68 183.90 284.84 182.52Z"/>
<path d="M291.48 119.00C288.42 119.00 285.90 123.29 285.90 125.76C285.90 128.49 287.28 129.96 289.01 131.06C285.94 133.70 283.46 136.47 283.46 139.88C283.46 144.24 287.24 146.76 291.61 146.76C295.26 146.76 299.97 144.58 299.97 140.00C299.97 136.31 296.40 133.53 292.79 131.56L292.03 131.18C292.66 130.72 293.29 130.22 293.92 129.71C297.45 126.94 300.51 124.04 300.51 121.44C300.51 120.56 299.80 119.76 299.51 119.76C299.21 119.76 299.42 120.05 299.42 120.39C299.42 121.06 298.96 121.65 298.50 122.32L298.04 122.91C296.36 121.27 293.84 119.00 291.48 119.00ZM292.16 132.78C295.22 134.54 298.04 136.10 298.04 138.99C298.04 143.11 294.42 144.92 291.19 144.92C287.91 144.92 284.76 143.49 284.76 140.72C284.76 137.69 287.49 134.92 290.90 132.11C291.32 132.36 291.74 132.57 292.16 132.78ZM290.14 130.09C288.75 129.17 287.70 128.07 287.70 126.52C287.70 124.04 290.69 120.43 292.66 120.43C295.31 120.43 295.89 122.82 297.07 124C295.10 126.14 292.53 128.12 290.14 130.09Z"/>
<path d="M299.92 199.78C295.30 199.78 288.87 208.06 288.87 212.55C288.87 213.10 289.25 213.77 289.71 213.77C290.05 213.77 290.05 213.60 290.05 212.80C290.05 208.86 296.69 201.04 300.26 201.04C301.98 201.04 302.94 202.39 302.94 204.40C302.94 209.65 294.33 215.07 294.33 220.95C294.33 222.34 294.96 222.59 295.17 222.59C295.51 222.59 295.76 222.51 295.76 222.21C295.76 221.92 295.43 221.75 295.43 220.70C295.43 216.50 304.29 211.50 304.29 205.41C304.29 203.14 303.24 199.78 299.92 199.78ZM295.26 224.77C294.75 224.77 294.25 225.78 294.25 226.37C294.25 226.96 294.50 227.46 295.30 227.46C296.10 227.46 296.64 226.54 296.64 225.87C296.64 225.19 295.76 224.77 295.26 224.77Z"/>
<path d="M318.34 165.71C318.34 170.08 317.25 175.08 315.57 175.08C314.77 175.08 314.35 173.82 314.35 171.51C314.35 170.25 314.85 166.84 315.06 166.13C315.27 165.42 315.52 165.00 315.52 164.79C315.52 164.58 314.68 164.16 314.39 164.16L314.31 164.16C314.26 164.03 314.18 163.90 314.14 163.74C313.80 163.02 313.09 161.76 311.62 161.76C311.07 161.76 310.61 162.22 310.27 162.90C309.22 164.91 308.34 169.03 308.34 172.18C308.34 176.04 309.35 176.97 310.65 176.97C311.45 176.97 311.95 176.63 312.42 175.62C312.84 174.74 313.17 173.61 313.42 172.43C313.63 175.12 314.64 176.13 315.65 176.13C318.00 176.13 319.09 169.87 319.09 165.71C319.09 160.59 317.20 154.92 311.91 154.92C306.12 154.92 303.97 167.64 303.97 172.93C303.97 179.49 306.79 183.01 311.11 183.01C315.15 183.01 318.88 180.28 318.88 178.60C318.88 178.23 318.72 177.93 318.42 177.93C318.13 177.93 318.04 177.93 318.04 178.39C318.04 178.98 315.78 182.09 311.11 182.09C307.84 182.09 304.90 179.91 304.90 173.14C304.90 167.05 307.63 155.92 312.00 155.92C316.07 155.92 318.34 160.42 318.34 165.71ZM311.66 174.74C311.28 175.50 310.90 176.04 310.53 176.04C309.98 176.04 309.60 175.16 309.60 172.72C309.60 170.41 310.82 163.15 312.37 163.15C312.92 163.15 313.17 163.99 313.30 164.70C313.34 165.12 313.38 165.37 313.76 165.42C313.51 168.86 312.88 172.39 311.66 174.74Z"/>
<path d="M316.83 119.50C311.03 119.50 307.84 132.22 307.84 137.52C307.84 144.07 310.86 147.60 315.19 147.60C319.22 147.60 324.93 144.36 324.93 142.68C324.93 142.30 324.77 142.01 324.47 142.01C324.18 142.01 324.09 142.01 324.09 142.47C324.09 143.06 319.89 146.25 315.23 146.25C311.96 146.25 309.86 144.74 309.86 138.82C309.86 131.89 313.64 120.59 317.71 120.59C319.22 120.59 322.20 121.68 322.20 123.74C322.20 125.80 320.90 128.82 320.90 130.71C320.90 132.10 321.28 133.06 321.87 133.06C322.75 133.06 323.93 129.24 323.93 125.55C323.93 123.32 323.55 122.48 322.62 121.77C320.73 120.30 318.84 119.50 316.83 119.50Z"/>
<path d="M332.31 80.59C330.63 80.59 328.69 81.01 326.72 81.64C326.76 81.39 326.80 81.22 326.80 81.14C326.80 80.59 325.63 79.83 325.25 79.83C324.87 79.83 324.33 80.09 324.33 80.51C324.33 80.59 324.28 81.43 324.16 82.65C320.17 84.33 316.77 86.64 316.77 87.60C316.77 88.28 316.98 88.53 317.19 88.53C317.40 88.53 317.48 88.23 317.48 87.98C317.48 87.27 320.50 85.46 324.03 83.99C323.65 88.65 323.07 96.51 323.07 98.82C323.07 105.66 323.19 107.22 324.62 107.22C324.96 107.22 324.91 106.84 324.91 105.62C326.72 105.83 327.85 107.89 329.87 107.89C334.57 107.89 339.82 95.79 339.82 89.83C339.82 84.66 336.72 80.59 332.31 80.59ZM326.51 83.07C328.53 82.40 330.54 81.93 332.10 81.93C335.58 81.93 337.85 83.36 337.85 88.78C337.85 96.00 332.68 106.25 329.07 106.25C327.01 106.25 326.13 104.45 324.91 103.82C324.96 94.16 326.01 86.51 326.51 83.07Z"/>
<path d="M342.69 40.79C339.33 40.79 327.40 42.14 327.40 48.18C327.40 51.00 329.25 52.34 331.64 52.80C328.49 53.90 324.63 56.84 324.63 60.53C324.63 67.04 331.98 68.47 336.47 68.47C342.73 68.47 348.07 65.19 348.07 63.72C348.07 63.22 347.44 62.84 347.14 62.84C346.85 62.84 346.85 63.01 346.85 63.35C346.85 63.68 346.85 63.81 346.26 64.19C344.75 65.19 341.43 66.75 336.64 66.75C331.35 66.75 325.76 65.15 325.76 60.95C325.76 55.20 335.76 52.80 339.12 52.80C340.13 52.80 340.42 53.31 340.76 53.31C341.09 53.31 341.35 52.80 341.35 52.34C341.35 51.33 340.97 51.00 339.67 51.00C338.36 51.00 335.80 51.50 334.21 51.50C331.31 51.50 328.41 50.96 328.41 48.81C328.41 43.94 339.33 42.72 341.89 42.72C343.95 42.72 345.17 42.93 345.46 43.35C345.76 43.77 346.01 44.15 346.26 44.15C346.51 44.15 346.76 43.73 346.76 43.06C346.76 41.51 346.09 40.79 342.69 40.79Z"/>
<path d="M344.39 3.54C344.01 3.54 343.59 3.88 343.59 4.30C343.59 4.72 343.76 5.47 343.76 6.27C343.76 6.86 343.17 14.12 342.88 18.95C339.68 19.00 335.65 19.12 332.50 19.29C333.01 14.38 333.64 9.13 333.64 8.24C333.64 5.98 333.43 5.81 332.92 5.60C332.54 5.43 331.54 5.05 331.37 5.05C331.20 5.05 331.12 5.22 331.12 5.47C331.12 5.72 331.28 6.14 331.28 9.55C331.28 10.60 330.86 14.96 330.57 19.46C329.86 19.54 329.23 19.58 328.76 19.67C328.05 19.79 327.50 19.88 327.50 20.51C327.50 21.14 327.63 21.31 328.26 21.31C328.89 21.31 329.60 21.47 330.40 21.73C330.32 23.66 330.23 25.51 330.23 26.98C330.23 30.29 330.91 30.80 332.25 30.80C332.50 30.80 332.50 30.63 332.50 30.50C332.50 30.38 331.91 29.33 331.91 27.31C331.91 26.30 332.04 24.54 332.21 22.44C336.70 24.54 342.04 28.99 343.09 30.84C343.30 31.22 343.59 31.30 343.80 31.30C344.01 31.30 345.65 30.84 345.65 30.55C345.65 30.25 344.18 29.87 344.18 24.37C344.18 22.99 344.22 21.64 344.30 20.34C346.91 20.21 349.93 19.58 349.93 19.08C349.93 18.83 349.64 18.62 349.43 18.62C349.26 18.62 348.88 18.91 348.04 18.91C347.83 18.91 346.40 18.91 344.39 18.95C345.10 10.97 347.03 5.22 347.03 4.76C347.03 4.17 344.77 3.54 344.39 3.54ZM342.67 22.99C342.67 24.71 342.79 27.65 343.09 29.24C340.78 25.93 335.65 22.78 332.33 21.18C332.33 20.97 332.38 20.72 332.38 20.51L342.75 20.34C342.71 21.56 342.67 22.52 342.67 22.99Z"/>
<path d="M326.74 191.83C324.47 191.83 321.70 192.25 319.14 192.84C319.18 192.59 319.18 192.34 319.18 192.13C319.18 191.25 319.10 191.12 318.30 191.12C317.63 191.12 316.54 191.25 316.54 191.75C316.54 191.83 316.49 192.51 316.49 193.47C313.72 194.27 311.71 195.11 311.71 195.53C311.71 196.58 311.71 197.21 311.92 197.21C312.13 197.21 312.13 196.92 312.88 196.54C313.76 196.12 314.98 195.61 316.41 195.19C316.33 198.76 316.12 204.27 316.03 207.96C315.95 208.00 315.91 208.00 315.86 208.00C315.32 208.13 314.94 208.38 314.94 208.76C314.94 209.14 315.11 209.31 315.61 209.31L315.99 209.31C315.95 210.44 315.95 211.24 315.95 211.57C315.95 218.13 316.20 219.05 318.43 219.05C318.68 219.05 318.97 219.05 318.97 218.88C318.97 218.71 318.68 218.67 318.51 218.50C317.75 217.75 317.67 216.53 317.67 212.16C317.67 211.07 317.67 210.02 317.71 209.01C322.84 208.05 334.85 204.43 334.85 197.08C334.85 194.98 332.66 191.83 326.74 191.83ZM319.01 194.48C322.16 193.68 325.69 193.05 328.13 193.05C331.03 193.05 332.66 194.19 332.66 196.20C332.66 203.09 323.89 206.03 317.75 207.58C318.01 201.45 318.68 197.25 319.01 194.48Z"/>
<path d="M344.83 155.00C341.89 155.00 338.57 155.76 335.50 156.72C335.33 155.25 334.62 154.96 333.57 154.96C333.32 154.96 333.23 155.25 333.23 155.72L333.23 157.52C328.99 159.08 327.19 160.38 327.19 161.47C327.19 162.06 327.52 162.31 327.82 162.31C327.98 162.31 328.11 162.23 328.11 162.10C328.11 161.89 327.94 161.93 327.94 161.76C327.94 161.22 330.21 160.13 333.19 159.03C333.11 166.80 332.73 176.00 332.73 177.18C332.73 181.80 332.94 182.72 334.16 182.72C334.49 182.72 334.96 182.60 334.96 182.34C334.96 182.09 334.33 181.71 334.33 177.22C334.33 176.21 334.41 174.07 334.58 171.59L335.33 171.42C339.70 177.09 344.91 181.50 348.73 181.50C349.57 181.50 350.92 180.50 350.92 180.33C350.92 180.20 350.83 180.16 350.71 180.16C350.37 180.16 349.99 180.54 349.07 180.54C345.67 180.54 340.08 175.54 337.81 170.71C344.24 168.65 352.72 164.66 352.72 159.92C352.72 157.14 349.53 155.00 344.83 155.00ZM335.50 158.28C338.95 157.23 342.81 156.35 345.33 156.35C348.86 156.35 350.45 157.35 350.45 159.62C350.45 165.12 339.53 169.28 334.70 169.91C335.00 165.29 335.42 160.13 335.50 158.28Z"/>
<path d="M342.23 116.33C338.33 116.33 335.13 126.79 335.13 130.11C335.13 133.89 338.83 135.27 342.36 136.49C345.55 137.58 348.62 138.55 348.62 140.40C348.62 142.33 346.89 143.04 344.33 143.04C340.72 143.04 335.47 142.03 334.17 140.94C333.92 140.73 334.08 140.44 333.83 140.44C333.58 140.44 333.33 140.86 333.33 141.07C333.33 142.75 340.38 144.51 344.79 144.51C348.32 144.51 350.72 142.83 350.72 140.90C350.72 138.00 347.02 136.74 343.62 135.48C339.38 133.93 337.40 133.17 337.40 129.18C337.40 126.49 340.59 117.67 343.28 117.67C345.00 117.67 346.05 119.27 346.60 121.54C346.98 123.22 347.10 125.32 347.10 127.12C347.10 128.93 347.44 129.81 348.15 129.81C348.66 129.81 349.12 129.22 349.12 125.91C349.12 120.99 347.86 119.02 346.85 118.26C345.84 117.51 343.53 116.33 342.23 116.33Z"/>
<path d="M357.38 76.79C357.05 76.79 356.71 77.80 356.21 78.77C354.49 82.04 351.29 85.19 349.03 85.19C348.56 85.19 347.81 84.94 347.81 85.23C347.81 85.57 348.90 86.12 349.82 86.12C351.63 86.12 353.39 84.69 354.28 83.81C353.69 86.28 353.02 91.20 353.02 93.97C353.02 100.27 355.28 103.80 359.32 103.80C362.76 103.80 364.99 99.56 366.12 95.44C366.08 96.36 366.08 97.29 366.08 97.96C366.08 102.87 366.71 105.10 368.05 105.10C368.35 105.10 368.77 105.02 368.77 104.72C368.77 104.43 367.72 104.97 367.72 98.04C367.72 94.22 368.39 86.75 369.10 83.30C369.52 81.29 370.15 79.98 370.15 79.90C370.15 79.65 368.35 78.60 367.63 78.60C367.30 78.60 366.88 78.81 366.88 79.10C366.88 79.40 367.17 80.24 367.17 82.63C367.17 91.41 363.26 102.79 359.40 102.79C356.63 102.79 354.86 100.23 354.86 95.15C354.86 89.14 356.75 81.58 358.52 79.06C358.81 78.64 359.23 78.39 359.23 78.14C359.23 77.46 358.10 76.79 357.38 76.79Z"/>
<path d="M359.36 65.71C359.36 66.71 360.03 67.47 360.66 67.47C360.87 67.47 361.04 67.39 361.04 67.09C361.04 66.88 360.91 66.42 360.91 66.17C360.91 64.99 365.07 58.06 366.96 55.00C369.19 63.14 371.92 67.97 374.98 67.97C375.45 67.97 376.50 67.85 376.50 67.51C376.50 67.34 376.20 67.26 375.61 67.26C373.01 67.26 369.86 59.15 368.39 52.77C371.41 48.32 375.78 42.94 377.42 41.26C377.80 40.88 377.88 40.59 377.88 40.38C377.88 40.13 377.71 40.04 377.59 40.04C377.38 40.04 377.17 40.21 376.83 40.51C375.07 42.06 370.70 47.23 368.01 51.05C366.88 45.59 366.21 41.05 362.34 41.05C358.81 41.05 356.46 48.95 356.46 50.96C356.46 51.97 356.80 52.90 357.13 52.90C357.47 52.90 357.51 52.60 357.51 52.01C357.51 48.40 360.58 42.44 362.51 42.44C364.53 42.44 365.16 47.73 366.54 53.23C364.11 57.01 359.36 64.61 359.36 65.71Z"/>
<path d="M366.23 4.25C365.77 4.25 365.43 4.50 365.43 4.92C365.43 5.34 365.22 7.44 365.01 9.33C364.89 10.42 364.01 15.96 363.88 17.60C363.38 16.64 362.49 15.96 361.65 15.96C360.77 15.96 359.72 18.06 358.76 20.92C358 23.23 357.62 25.54 357.62 27.51C357.62 30.50 358.63 31.88 360.02 31.88C361.40 31.88 362.33 29.95 363.17 27.18L363.17 27.81C363.17 29.82 364.13 31.59 365.10 31.59C367.37 31.59 369.38 23.94 369.38 20.71C369.38 20.37 369.26 20.16 369.00 20.16C368.75 20.16 368.63 20.37 368.63 20.71C368.63 23.94 366.65 30.29 365.10 30.29C364.64 30.29 364.26 29.45 364.26 27.72C364.26 26.34 364.47 23.40 364.76 21.47C365.01 19.91 365.90 11.93 366.78 7.86C366.95 7.02 367.28 5.51 367.28 4.83C367.28 4.37 366.95 4.25 366.23 4.25ZM362.96 24.83C361.95 28.40 360.81 30.92 359.97 30.92C359.30 30.92 358.97 29.24 358.97 27.85C358.97 23.99 360.77 17.77 362.49 17.77C362.87 17.77 363.46 18.11 363.84 18.82C363.71 20.79 363.50 22.94 362.96 24.83Z"/>
<path d="M380.11 3.75C379.73 3.75 379.44 3.96 379.44 4.25C379.44 4.55 379.18 8.03 379.06 9.13C378.93 10.22 378.18 17.15 377.97 19.04C377.76 20.97 377.63 23.28 377.63 24.88C377.63 28.61 378.01 31.47 379.18 31.47C379.94 31.47 380.07 30 380.23 29.16C380.57 27.40 382.08 21.43 382.21 21.01C382.33 20.59 382.42 20.42 382.54 20.42C382.67 20.42 382.80 20.55 382.80 20.76C382.80 20.97 382.71 22.10 382.71 22.99C382.71 27.61 383.30 30.67 385.53 30.67C387.58 30.67 389.35 22.23 389.35 19.71C389.35 19.37 389.22 19.16 388.97 19.16C388.72 19.16 388.59 19.37 388.59 19.71C388.59 22.44 386.95 29.16 385.32 29.16C384.52 29.16 383.85 27.73 383.85 24.96C383.85 22.69 384.64 18.62 384.77 18.07C384.90 17.53 385.06 17.02 385.06 16.73C385.06 16.01 383.76 15.43 383.17 15.43C382.84 15.43 382.75 15.55 382.59 15.97C382.17 17.11 380.02 26.43 379.90 26.81C379.69 27.40 379.65 28.07 379.39 28.07C379.18 28.07 378.89 27.61 378.89 24.79C378.89 22.06 379.39 17.86 379.52 16.69C379.65 15.51 380.53 8.62 380.91 6.61C381.16 5.30 381.45 4.97 381.45 4.38C381.45 4.04 380.78 3.75 380.11 3.75Z"/>
<path d="M362.07 112.54C361.36 112.54 361.11 112.96 360.90 113.80C360.18 116.74 358.25 126.57 358.25 131.57C358.25 137.49 360.31 140.43 362.24 140.43C365.85 140.43 367.28 130.94 367.28 128.71C367.28 128.37 367.16 128.16 366.90 128.16C366.65 128.16 366.53 128.37 366.53 128.71C366.53 131.73 364.72 139.13 362.37 139.13C361.57 139.13 360.65 138.41 360.10 136.10C362.87 131.90 364.64 123.67 364.64 116.74C364.64 115.14 364.43 113.84 363.88 113.30C363.54 112.96 362.79 112.54 362.07 112.54ZM359.68 131.48C359.68 124.05 362.16 114.18 362.91 114.18C363.17 114.18 363.50 115.73 363.50 117.29C363.50 124.05 361.82 130.68 359.85 134.67C359.76 133.79 359.68 132.74 359.68 131.48Z"/>
<path d="M345.64 191.06C345.26 191.06 344.76 191.31 344.76 191.48C344.76 191.77 344.97 191.77 344.97 192.36C344.97 192.95 344.88 195.55 344.71 197.31C344.55 199.08 343.41 208.15 343.41 213.69C343.41 216.97 343.71 218.06 344.21 218.19C344.50 218.27 344.97 218.40 345.13 218.40C345.30 218.40 345.30 218.15 345.13 217.56C344.97 216.97 344.71 215.16 344.71 213.53C344.71 209.66 344.97 206.39 345.34 203.66C345.60 204.83 346.35 206.22 347.70 206.22C348.83 206.22 349.71 205.67 350.38 204.54C351.60 202.48 352.23 199.29 352.23 196.26C352.23 194.37 351.85 192.23 351.39 191.81C351.06 191.48 349.80 190.85 349.08 190.85C348.03 190.85 346.77 194.08 346.06 196.10C346.18 194.71 346.27 193.20 346.27 192.78C346.27 191.69 346.02 191.06 345.64 191.06ZM347.65 194.75C348.49 192.61 349.08 191.69 349.59 191.69C350.38 191.69 350.80 194.04 350.80 195.59C350.80 200.55 349.46 205.29 347.57 205.29C346.86 205.29 346.23 204.24 346.23 203.49C346.23 202.98 346.48 202.90 346.48 202.61C346.48 202.31 346.14 201.89 345.72 201.89L345.64 201.89C346.18 199.04 346.86 196.73 347.65 194.75Z"/>
<path d="M361.70 191.16C361.07 191.16 360.65 191.62 360.65 192.17C360.65 192.72 359.77 204.56 359.77 206.45C359.77 211.11 360.61 213.30 361.37 213.30C361.70 213.30 361.70 212.92 361.70 212.71C361.70 212.50 361.45 211.32 361.45 207.84C361.45 198.05 363.22 192.63 363.22 192.30C363.22 191.96 362.33 191.16 361.70 191.16ZM361.24 214.81C360.70 214.81 359.90 216.15 359.90 216.82C359.90 217.58 360.70 218.21 361.37 218.21C362.04 218.21 362.33 216.95 362.33 216.36C362.33 215.77 361.58 214.81 361.24 214.81Z"/>
<path d="M362.44 225.71C360.97 225.71 359.55 230.92 359.55 233.65C359.55 237.89 361.44 238.60 362.74 238.60C364.88 238.60 365.68 235.20 365.68 232.22L365.68 231.76C366.27 232.09 366.98 232.30 367.82 232.30C369.58 232.30 371.39 231.50 372.69 230.62C371.47 232.39 369.92 234.91 369.04 236.33C366.56 240.28 363.37 246.50 362.40 249.19C362.15 249.90 361.81 250.78 361.81 251.12C361.81 251.45 362.40 252.21 362.65 252.21C362.91 252.21 362.95 251.24 363.41 250.07C367.23 240.62 372.44 232.64 376.98 227.43C377.35 227.01 377.65 226.46 377.10 226.04C376.56 225.62 376.26 225.71 375.93 226.30C375.00 227.93 371.18 231.34 368.03 231.34C366.94 231.34 366.18 231.13 365.64 230.71C365.59 228.94 365.34 226.88 364.29 226.80C363.83 226.25 363.12 225.71 362.44 225.71ZM372.44 239.69C371.43 239.69 370.13 243.68 370.13 246.62C370.13 250.70 371.26 252.34 373.41 252.34C375.38 252.34 376.47 248.01 376.47 244.86C376.47 241.96 375.55 239.95 373.57 239.95C373.03 239.95 372.90 239.69 372.44 239.69ZM373.49 240.83C374.88 240.83 375.34 243.68 375.34 245.45C375.34 249.06 374.29 251.58 373.20 251.58C372.23 251.58 371.47 250.07 371.47 247.67C371.47 245.70 372.10 240.83 373.49 240.83ZM363.66 228.23C363.66 229.07 363.91 229.99 364.50 230.71C364.54 231.34 364.59 231.88 364.59 232.30C364.59 234.32 364.12 237.64 362.53 237.64C361.69 237.64 361.02 236.21 361.02 234.19C361.02 230.79 362.53 227.05 363.03 227.05C363.24 227.05 363.49 227.35 363.66 227.68Z"/>
<path d="M368.77 149.30C365.03 149.38 363.23 156.23 363.23 158.83C363.23 160.09 363.81 161.31 364.57 161.31C365.83 161.31 366.42 157.70 366.42 154.25C366.42 151.23 367.93 150.43 369.65 150.43C371.42 150.43 372.97 151.61 372.97 154.29C372.97 156.60 372.13 159.75 370.32 161.31C369.86 161.22 369.40 161.14 368.94 161.14C367.51 161.14 366.80 162.19 366.80 162.90C366.80 163.49 367.09 163.87 367.51 163.87C368.22 163.87 369.06 163.62 369.86 163.11C372.80 162.27 373.94 164.63 373.94 167.69C373.94 171.72 370.87 175.21 368.10 175.21C365.20 175.21 363.69 172.73 362.76 170.76C362.60 170.38 362.39 170.17 362.09 170.17C361.80 170.17 361.38 170.63 361.38 171.35C361.38 173.45 364.95 176.22 368.60 176.22C372.30 176.22 376.25 173.07 376.25 167.82C376.25 165.68 375.49 163.95 373.31 162.65C372.68 162.32 372.13 161.98 371.63 161.77C373.52 159.92 375.07 157.11 375.07 154.29C375.07 151.56 372.38 149.17 368.77 149.30Z"/>
<path d="M386.30 113.25C385.88 113.25 385.54 113.55 385.04 114.22C383.44 116.36 375.92 128.84 375.92 128.84C375.92 128.84 375.38 129.59 375.38 130.10C375.38 130.60 375.76 130.98 376.05 131.36C376.34 131.73 376.81 132.57 377.35 132.57C377.86 132.57 382.39 131.36 385.75 131.27C385.63 133.75 385.58 135.68 385.58 136.27C385.58 140.18 386.13 140.30 387.52 140.30C387.73 140.30 388.23 140.22 388.23 140.01C388.23 139.67 387.22 139.34 387.22 135.98C387.22 134.93 387.31 133.25 387.43 131.31C389.70 131.36 391.25 131.52 391.93 131.52C392.64 131.52 393.02 131.27 393.02 130.85C393.02 130.43 392.81 130.05 392.39 130.01C391.93 129.97 389.28 129.84 388.52 129.84C388.23 129.84 387.89 129.84 387.52 129.89C387.81 126.32 388.19 122.33 388.61 119.89C389.03 117.37 389.49 115.61 389.49 115.40C389.49 114.09 387.68 113.25 386.30 113.25ZM378.49 130.47C378.02 130.47 377.81 130.14 377.81 129.76C377.81 129.38 378.28 128.25 378.99 126.78C380.21 124.22 383.44 118.50 386.47 115.61L385.79 129.97C383.11 130.14 379.96 130.47 378.49 130.47Z"/>
<path d="M385.23 76.30C381.66 76.30 378.01 87.43 378.01 94.10C378.01 99.82 381.28 103.13 385.74 103.13C390.48 103.13 392.92 98.98 392.92 94.90C392.92 90.79 390.27 87.30 386.20 87.30C383.64 87.30 381.16 89.23 379.98 91.12C380.91 85.66 384.01 77.77 386.74 77.77C388.76 77.77 389.39 80.41 389.39 82.13C389.39 84.28 389.64 84.86 390.73 84.86C391.20 84.86 391.70 83.86 391.70 81.88C391.70 80.20 390.90 77.98 389.47 77.47C388.30 77.05 386.32 76.30 385.23 76.30ZM386.28 88.43C389.18 88.43 390.90 91.00 390.90 93.68C390.90 98.18 388.55 101.87 385.61 101.87C382.00 101.87 380.02 100.57 380.02 95.41C380.02 90.28 384.39 88.43 386.28 88.43Z"/>
<path d="M397.27 41.35C396.98 41.35 396.85 41.64 396.85 42.48C396.85 42.52 396.81 42.94 396.81 43.28C395.51 42.02 393.28 40.38 391.85 40.38C388.45 40.38 384.67 48.11 384.67 51.30C384.67 56.63 389.12 57.85 391.69 57.85C393.16 57.85 394.84 57.35 395.80 57.01C395.63 59.28 395.55 61.04 395.55 61.59C395.55 63.73 395.63 66.29 396.31 66.71C396.64 66.92 397.44 67.34 397.73 67.34C398.03 67.34 398.20 67.22 398.20 66.97C398.20 66.71 397.31 64.91 397.31 61.51C397.31 56.97 398.45 46.55 399.08 43.78C399.29 42.90 399.71 42.61 399.71 42.35C399.71 42.10 398.95 41.56 398.36 41.56C397.61 41.56 397.78 41.35 397.27 41.35ZM390.97 56.51C388.83 56.51 386.60 55.46 386.60 52.69C386.60 48.86 390.01 42.14 392.78 42.14C393.83 42.14 395.72 43.70 396.68 44.79L395.93 54.95C394.79 55.96 392.95 56.51 390.97 56.51Z"/>
<path d="M401.18 18.20C401.18 18.53 402.70 18.79 405.55 18.87C405.51 19.75 405.51 20.55 405.51 21.22C405.51 30.80 405.55 31.09 407.27 31.09C407.69 31.09 407.69 30.92 407.69 30.76C407.69 30.59 407.19 30.04 407.19 24.25C407.19 22.86 407.23 20.97 407.36 18.91L407.95 18.91C411.52 18.91 413.45 18.74 413.45 17.82C413.45 17.61 412.52 17.53 409.88 17.53C409.21 17.53 408.37 17.57 407.44 17.57C407.74 12.99 408.32 7.99 409.21 6.06C413.24 5.64 417.23 5.26 418.87 5.26C419.87 5.26 422.06 5.35 422.06 4.97C422.06 4.59 421.68 4.34 418.15 4.34C414.54 4.34 408.74 4.80 404.00 5.22C400.13 5.56 397.70 5.89 397.70 6.52C397.70 7.07 398.54 7.99 398.92 7.99C399.29 7.99 399.34 7.32 400.13 7.19C401.56 6.98 403.83 6.69 406.27 6.40C406.10 8.29 405.76 13.45 405.59 17.65C403.28 17.78 401.18 17.95 401.18 18.20Z"/>
<path d="M388.90 198.45C383.82 198.45 377.10 199.46 376.17 199.71C375.25 199.96 374.45 200.63 374.45 200.89C374.45 201.05 374.49 201.22 374.70 201.22C374.91 201.22 375.29 200.76 376.26 200.68C378.86 200.42 382.94 200.13 385.88 200.05C386.17 200.42 386.55 200.93 386.55 201.94C386.55 205.13 382.43 209.58 378.11 209.58C374.96 209.58 372.90 207.61 372.90 202.61C372.90 196.01 377.27 185.09 381.09 185.09C382.81 185.09 385.50 186.86 385.50 188.75C385.50 190.22 385.16 190.60 385.16 191.86C385.16 193.58 385.50 194.96 386.72 194.96C387.51 194.96 387.98 193.24 387.98 190.30C387.98 188.75 387.39 186.77 385.92 185.81C384.45 184.84 381.59 183.71 379.87 183.71C375.46 183.71 370.84 194.42 370.84 202.86C370.84 207.82 373.99 210.84 378.53 210.84C384.49 210.84 388.19 205.13 388.52 199.96C390.41 199.79 392.18 199.29 392.18 198.91C392.18 198.45 391.08 198.45 388.90 198.45Z"/>
<path d="M384.45 174.38C384.45 174.88 386.43 175.01 388.36 175.01C392.52 175.01 395.79 174 395.79 173.54C395.79 173.29 395.42 173.12 394.41 173.12C394.03 173.12 392.69 173.20 391.09 173.37C391.05 172.57 390.88 171.06 390.88 168.75C390.88 165.77 391.17 155.18 392.77 149.93C396.47 149.64 398.40 149.01 398.40 148.59C398.40 148.38 397.81 148.30 396.26 148.30C394.70 148.30 388.57 148.80 387.69 148.93C386.81 149.05 385.50 149.72 385.50 149.93C385.50 150.14 386.22 150.10 387.86 150.10L389.49 150.10C389.62 150.82 389.75 152.03 389.75 153.80C389.75 158.38 389.24 166.90 389.24 169.42C389.24 170.64 389.28 172.40 389.28 173.54C386.85 173.79 384.45 174.13 384.45 174.38Z"/>
<path d="M405.29 219.59C405.08 219.59 404.82 220.09 404.19 220.98C401.30 225.01 394.53 230.51 389.41 233.37C389.87 225.47 391.13 220.47 391.13 219.63C391.13 218.62 390.29 218.58 389.96 218.58C389.62 218.58 388.40 219.46 388.40 220.43C388.40 221.40 388.36 226.60 388.19 228.87C388.07 230.34 387.86 231.77 387.73 234.25L386.64 234.71C386.01 234.96 385.71 235.21 385.71 235.63C385.71 236.05 386.13 236.52 386.76 236.89L387.60 237.44L387.60 239.54C387.60 241.89 387.90 245.42 388.15 245.55C388.40 245.67 389.07 245.97 389.37 245.97C389.66 245.97 389.96 245.92 389.96 245.59C389.96 245.25 389.24 245.17 389.24 239.33L389.24 238.32C395.00 241.56 402.35 244.96 403.86 244.96C404.28 244.96 405.33 244.12 405.33 243.82C405.33 243.53 405.12 243.36 404.19 243.32C400.50 243.07 392.48 239.25 389.28 235.76C389.28 235.59 389.33 235.42 389.33 235.26C395.42 231.73 402.85 225.55 405.24 222.61C405.75 222.03 406.04 221.90 406.04 221.40C406.04 220.89 405.50 219.59 405.29 219.59Z"/>
<path d="M402.65 182.71C402.44 182.71 402.32 182.96 402.11 182.96C401.90 182.96 401.73 182.83 401.60 182.83C401.48 182.83 401.44 182.88 401.44 183.59C401.44 184.30 400.72 190.39 400.60 191.65C400.47 192.91 399.55 199.51 399.55 205.09C399.55 207.78 399.71 208.58 400.47 208.58C400.76 208.58 401.14 208.45 401.27 208.20C401.69 209 402.40 209.92 403.20 209.92C405.68 209.92 406.85 203.67 406.85 199.26C406.85 197.07 406.06 195.31 404.42 195.31C403.45 195.31 403.03 195.77 402.65 196.53C401.81 198.16 401.14 200.56 400.81 202.11C400.93 200.01 401.27 195.90 401.69 193.33C402.19 190.10 403.37 184.47 403.37 183.67C403.37 183.13 402.86 182.71 402.65 182.71ZM401.06 206.27C401.06 202.70 403.58 196.15 404.46 196.15C405.30 196.15 405.47 198.00 405.47 199.30C405.47 201.69 404.67 208.58 402.86 208.58C402.44 208.58 402.11 208.33 401.94 207.78C401.81 207.28 401.39 206.90 401.10 206.90L401.06 206.90Z"/>
<path d="M415.60 217.58C415.35 217.58 415.10 217.67 415.10 218.30C415.10 218.93 414.85 224.01 414.51 227.41C414.34 229.09 413.63 235.14 413.63 240.01C413.63 244.17 414.05 244.76 414.76 244.76C415.14 244.76 415.27 244.50 415.27 244.34C415.27 244.17 414.97 243.96 414.97 242.61C414.97 241.94 415.02 241.19 415.14 240.43C415.77 240.05 416.49 239.46 417.24 238.79C417.37 241.40 418.46 244.17 420.60 244.17C421.40 244.17 422.16 243.66 422.70 242.57C424.21 239.51 424.89 235.39 424.89 233.71C424.89 233.37 424.76 233.16 424.51 233.16C424.26 233.16 424.13 233.37 424.13 233.71C424.13 236.31 422.53 243.08 420.52 243.08C419.34 243.08 418.50 240.64 418.50 238.79C418.50 238.29 418.50 237.83 418.54 237.41C419.97 235.68 421.19 233.58 421.19 231.48C421.19 230.35 420.56 229.09 419.22 229.09C418.63 229.09 418.29 229.30 417.79 229.93C416.91 231.02 415.65 234.17 414.97 236.57C415.14 233.71 415.69 227.70 415.86 226.23C416.07 224.43 417.12 219.01 417.12 218.55C417.12 218.09 416.82 217.58 415.60 217.58ZM419.47 230.14C419.76 230.14 420.06 230.60 420.06 231.19C420.06 234.05 417.49 238.04 415.35 239.17C416.23 234.80 418.38 230.14 419.47 230.14Z"/>
<path d="M404.40 75.47C402.51 75.47 401 81.64 401 86.60C401 89.75 401.84 90.59 403.06 90.59C404.40 90.59 405.58 88.19 406.25 86.14C405.96 89.37 405.87 94.03 405.87 95.59C405.87 97.60 405.96 101.76 406.46 102.14C406.96 102.52 407.59 102.56 407.72 102.56C407.85 102.56 407.93 102.47 407.76 102.01C407.59 101.55 407.22 99.91 407.22 98.27C407.22 96.64 407.68 93.99 408.69 91.51C409.90 88.53 411.63 85.09 411.63 79.71C411.63 79.37 411.50 79.16 411.25 79.16C411.00 79.16 410.87 79.37 410.87 79.75C410.87 84.12 409.53 87.65 408.39 90.25C407.97 91.13 407.47 92.48 407.09 93.65C407.05 91.13 407.09 86.77 407.68 83.28C408.01 81.35 408.39 79.04 408.39 78.74C408.39 78.45 407.80 77.82 407.51 77.82C407.26 77.82 407.01 77.95 406.92 78.32L406.33 77.15C406.00 76.60 405.07 75.47 404.40 75.47ZM403.10 89.79C402.34 89.79 402.09 88.78 402.09 86.93C402.09 84.12 403.52 76.77 404.82 76.77C405.16 76.77 405.62 77.44 405.87 78.03C406.04 78.41 406.12 78.91 406.25 79.21C406.33 79.42 406.54 79.75 406.84 79.79C406.50 83.95 404.40 89.79 403.10 89.79Z"/>
<path d="M318.18 227.05C315.37 227.05 311.84 235.24 311.84 242.93C311.84 246.62 312.09 249.31 313.39 250.70C314.99 252.42 316.84 253.09 318.90 253.09C321.29 253.09 322.84 252.13 324.36 249.65C326.12 246.71 327.30 242.55 327.30 238.31C327.30 235.12 326.33 229.99 324.27 229.32C322.68 228.82 321.71 227.05 318.18 227.05ZM320.11 228.61C322.21 228.61 325.74 230.87 325.74 237.89C325.74 245.53 322.51 252.04 318.90 252.04C316.46 252.04 313.90 250.45 313.90 243.89C313.90 237.34 317.09 228.61 320.11 228.61Z"/>
<path d="M340.64 227.42C339.54 227.42 338.91 228.05 338.37 229.14C336.90 232.04 335.60 236.24 335.60 237.96C335.60 239.31 335.97 239.85 336.52 239.85C337.23 239.85 337.86 238.30 338.16 237.00C339.63 230.74 339.59 228.60 341.31 228.60C343.58 228.60 345.63 229.52 345.63 232.55C345.63 238.55 340.43 247.25 337.32 250.35C336.06 251.61 334.67 251.53 334.67 252.03C334.67 252.96 335.55 253.80 336.60 253.80C336.98 253.80 337.82 253.50 339.46 253.21C341.77 252.79 344.71 252.54 346.68 252.54C348.49 252.54 349.54 252.79 349.79 252.79C350.17 252.79 350.42 252.45 350.42 252.03C350.42 251.95 350.42 251.82 350.04 251.70C349.25 251.45 347.40 251.15 344.50 251.15C343.53 251.15 340.38 251.24 338.49 251.32C342.44 247.08 348.15 238.51 348.15 233.39C348.15 230.07 344.33 227.42 340.64 227.42Z"/>
<path d="M422.66 39.14C422.28 39.14 412.37 39.77 411.70 39.93C410.81 40.14 410.48 40.48 410.48 41.24C410.48 45.60 409.76 50.31 409.76 51.02C409.76 51.74 409.89 52.41 410.27 52.87C410.65 53.33 411.02 53.79 411.32 53.79C411.61 53.79 413.88 50.98 417.66 50.98C420.98 50.98 422.11 53.37 422.11 55.43C422.11 59.97 418.92 63.50 415.10 63.50C411.99 63.50 410.44 60.60 408.88 60.60C408.17 60.60 407.83 60.93 407.83 61.44C407.83 63.16 412.87 64.84 415.64 64.84C420.01 64.84 424.21 62.03 424.21 56.52C424.21 52.53 420.39 49.59 416.57 49.59C414.38 49.59 412.28 50.56 412.12 50.56C411.95 50.56 411.65 50.48 411.65 50.01C411.65 49.55 412.12 44.26 412.28 43.63C412.58 42.50 412.66 42.29 413.80 41.95C414.55 41.74 418.33 41.11 420.43 40.98C421.82 40.90 423.08 40.23 423.08 39.68C423.08 39.35 423.04 39.14 422.66 39.14Z"/>
<path d="M442.78 4.14C437.99 4.14 434.00 4.56 430.47 5.44C430.01 5.56 429.50 5.86 429.50 6.49C429.50 7.12 429.76 7.58 430.09 7.58C430.43 7.58 431.35 7.24 432.19 6.99C433.96 6.49 436.73 5.98 438.20 5.98C439.33 5.98 440.00 6.32 440.00 6.66C440.00 6.99 439.25 8.34 438.83 9.22C437.27 12.54 430.97 25.93 430.97 28.96C430.97 29.55 431.52 30.05 432.07 30.05C432.61 30.05 432.78 29.92 432.78 29.46C432.78 29 432.86 27.28 433.45 25.64C435.72 19.30 441.22 9.26 443.41 6.24C443.74 5.77 443.87 5.69 443.87 5.48C443.87 5.27 443.70 5.06 443.49 4.93C443.07 4.64 443.36 4.14 442.78 4.14Z"/>
<path d="M413.63 110.09C412.87 110.09 412.20 110.59 412.20 111.05C412.20 111.51 412.83 115.38 412.83 123.19C412.83 132.98 412.11 134.78 409.09 134.78C406.61 134.78 404.51 132.30 403.46 130.96C403.04 130.41 402.45 130.16 401.99 130.16C401.53 130.16 401.32 130.54 401.32 131.00C401.32 132.39 406.36 136.46 411.19 136.46C414.38 136.46 414.47 133.44 414.47 129.36C414.47 126.30 414.34 121.97 414.47 119.37C414.76 113.95 415.43 111.39 415.43 111.01C415.43 110.59 414.38 110.09 413.63 110.09Z"/>
<path d="M436.51 72.80C435.04 72.80 427.56 74.10 424.07 75.15C422.81 75.53 422.31 75.87 422.31 76.24C422.31 76.96 422.77 77.42 422.94 77.42C423.11 77.42 423.11 77 423.61 76.75C425.63 75.74 431.80 74.73 434.32 74.73C434.99 74.73 436.46 74.86 436.46 75.24C436.46 75.61 430.67 82.33 428.90 84.48C426.72 87.12 420.42 94.68 420.42 96.78C420.42 98.29 421.47 99.18 422.35 99.18C423.02 99.18 430.29 96.99 435.16 96.99C436.09 96.99 437.18 97.12 437.64 97.12C438.10 97.12 438.69 97.08 438.69 96.74C438.69 96.40 437.85 95.65 433.61 95.65C429.87 95.65 423.86 96.70 423.53 96.70C422.77 96.70 422.52 96.45 422.52 96.15C422.52 95.23 426.05 90.19 429.95 85.95C433.90 81.62 437.43 77.88 438.65 77.17C439.57 76.62 440.08 76.37 440.08 75.66C440.08 75.24 439.95 74.69 439.24 73.89C438.52 73.09 437.64 72.80 436.51 72.80Z"/>
<path d="M434.91 37.51C433.82 37.51 433.70 37.89 433.70 38.40C433.70 38.90 432.44 43.27 432.44 43.94C432.44 45.07 433.23 45.12 433.23 45.75C433.23 49.90 432.18 58.01 432.18 59.73C432.18 62.13 433.23 62.55 434.07 62.55C434.54 62.55 434.58 62.34 434.58 61.96C434.58 61.58 434.24 60.03 434.24 57.00C434.24 50.28 436.13 38.90 436.13 38.44C436.13 37.98 435.75 37.51 434.91 37.51Z"/>
<path d="M445.85 48.15C445.30 48.15 444.97 48.48 444.97 48.82C444.92 50.50 444.38 55.96 444.38 57.64C444.38 60.87 445.26 61.80 446.90 61.80C447.40 61.80 447.91 61.55 448.37 60.92C450.13 58.44 451.14 53.02 451.14 50.75C451.14 50.37 451.01 50.16 450.76 50.16C450.51 50.16 450.38 50.37 450.38 50.71C450.38 53.23 449.25 57.56 448.12 59.61C447.70 60.37 447.28 60.79 446.77 60.79C446.02 60.79 445.64 60.12 445.64 57.43C445.64 54.07 446.81 48.95 446.81 48.74C446.81 48.53 446.39 48.15 445.85 48.15ZM446.73 38.40C446.02 38.40 445.34 39.29 445.34 39.75C445.34 40.63 446.52 41.18 447.11 41.18C447.61 41.18 448.03 40.67 448.03 40.13C448.03 39.50 447.61 38.40 446.73 38.40Z"/>
<path d="M453.18 8.86C452.72 8.86 452.13 8.86 452.13 9.20C452.13 9.54 452.59 9.66 452.80 9.79C453.01 9.91 453.26 10.25 453.43 10.25C453.60 10.25 454.27 10.04 454.94 10.04C455.66 10.04 456.92 10.08 458.30 10.08C457.97 13.99 457.55 19.03 457.55 20.04C457.55 24.32 458.51 27.13 460.19 27.13C462.50 27.13 464.31 18.52 464.31 15.75C464.31 15.37 464.18 15.16 463.93 15.16C463.68 15.16 463.55 15.37 463.55 15.71C463.55 19.62 461.41 25.79 460.32 25.79C459.31 25.79 458.93 24.03 458.93 19.57C458.93 16.55 459.35 12.94 459.81 10.08C462.21 10.08 464.77 10.04 466.11 9.91C466.70 9.87 468.13 9.70 468.84 9.54C469.52 9.37 469.64 9.24 469.64 9.07C469.64 8.91 469.10 8.86 466.79 8.86L459.98 8.86C460.32 6.85 460.61 5.38 460.61 5.13C460.61 4.58 460.57 4.33 460.11 4.08C459.65 3.82 459.35 3.70 459.10 3.70C458.85 3.70 458.60 3.87 458.60 4.08C458.60 4.29 458.72 4.79 458.72 5.25C458.72 5.42 458.60 6.93 458.43 8.86Z"/>
<path d="M411.93 144.51C411.72 144.51 411.59 144.84 411.47 145.64C411.30 146.61 411.17 148.33 411.05 150.26C410.50 150.30 409.83 150.34 409.16 150.34C409.24 148.33 409.37 146.65 409.49 145.89C409.54 145.51 409.79 144.09 409.24 144.09C409.03 144.09 408.91 144.42 408.78 145.22C408.61 146.23 408.44 148.16 408.28 150.39C407.48 150.43 406.76 150.43 406.39 150.43C405.76 150.43 405.67 150.51 405.67 150.85C405.67 151.48 407.14 151.52 407.48 151.52L408.23 151.52L408.02 154.88C407.56 154.92 407.23 154.96 407.10 154.96C406.30 155.09 405.63 155.43 405.63 155.93C405.63 156.18 405.80 156.31 405.92 156.31C406.05 156.31 406.43 156.06 407.44 156.06L407.98 156.06C407.90 158.41 407.81 160.47 407.81 161.26C407.81 162.02 407.86 163.07 408.53 163.07C408.78 163.07 408.82 162.02 408.82 161.85C408.82 160.93 408.82 158.62 408.91 156.06C409.49 156.06 410.17 156.06 410.80 156.01C410.75 158.03 410.71 159.75 410.71 160.51C410.71 161.26 410.75 162.31 411.43 162.31C411.68 162.31 411.72 161.26 411.72 161.10C411.72 160.17 411.72 158.20 411.80 155.93C412.48 155.85 413.06 155.76 413.44 155.64C413.95 155.47 414.53 154.84 414.53 154.38C414.53 154.21 414.45 154.17 414.32 154.17C414.20 154.17 413.44 154.63 411.97 154.71C411.93 154.71 411.85 154.75 411.80 154.75L411.93 151.31C412.56 151.27 413.11 151.23 413.48 151.14C414.03 151.06 414.28 150.93 414.28 150.72C414.28 150.51 413.99 150.09 413.48 150.09C413.23 150.09 412.64 150.13 412.01 150.18L411.97 150.18C412.01 148.50 412.10 147.03 412.18 146.31C412.22 145.93 412.48 144.51 411.93 144.51ZM408.95 154.84L409.12 151.48C409.70 151.48 410.38 151.44 411.01 151.39C410.92 152.53 410.88 153.66 410.84 154.80C410.25 154.80 409.58 154.84 408.95 154.84Z"/>
<path d="M417.86 173.56C416.31 173.56 415.64 175.54 415.64 177.05C415.64 179.36 417.02 180.87 418.62 181.80C419.96 182.55 421.27 183.60 421.27 184.61C421.27 185.62 420.55 186.46 419.50 186.46C417.70 186.46 416.48 185.20 415.68 184.27C415.43 183.98 415.09 183.69 414.88 183.94C414.67 184.19 414.76 184.44 415.13 184.99C415.55 185.62 416.69 186.92 418.58 187.30C418.54 188.01 418.49 190.11 419.12 190.11C419.50 190.11 419.50 188.22 419.50 187.42L419.71 187.42C421.90 187.42 422.90 186.21 422.90 184.86C422.90 183.01 421.27 182.30 419.50 181.08C418.45 180.37 417.02 178.81 417.02 177.34C417.02 175.71 417.57 174.40 418.75 174.40C420.22 174.40 420.55 176.25 420.55 177.85C420.55 179.11 420.85 179.65 421.27 179.65C421.69 179.65 422.32 178.39 422.32 177.13C422.32 175.87 421.77 175.03 421.06 174.49C420.59 174.15 420.13 173.86 419.38 173.69C419.33 172.85 419.17 171.04 418.87 171.04C418.54 171.04 418.41 172.81 418.37 173.56Z"/>
<path d="M480.18 3.99C479.63 3.99 479.38 5.08 479.38 5.96C479.38 6.72 479.59 7.52 480.05 8.15C479.92 9.83 479.71 12.05 479.59 12.98C479.38 14.53 478.71 19.19 478.45 20.24C478.29 21.04 477.87 22.05 477.87 22.26C477.87 22.60 478.03 22.85 478.29 22.85C478.54 22.85 478.83 22.55 479.04 21.84C479.59 20.08 480.55 13.48 480.97 9.11L481.39 9.37C482.65 10.04 482.95 10.37 482.95 11.13C482.95 12.39 482.74 15.29 482.74 16.51C482.74 20.33 483.75 21.80 485.13 21.80C487.65 21.80 489.12 12.56 489.12 10.71C489.12 10.37 489.00 10.16 488.74 10.16C488.49 10.16 488.37 10.37 488.37 10.71C488.37 13.82 486.35 20.87 485.01 20.87C484.17 20.87 484.00 19.45 484.00 17.81C484.00 16.38 484.59 11.97 484.59 11.26C484.59 10.04 484.00 9.45 482.57 8.90C482.02 8.69 481.48 8.40 481.06 7.98C481.14 7.14 481.18 6.38 481.18 5.88C481.18 4.62 480.72 3.99 480.18 3.99Z"/>
<path d="M511.08 4.46C510.87 4.46 510.57 4.92 509.82 5.72C505.91 9.92 500.83 12.90 497.64 14.33C497.01 14.63 496.71 14.84 496.71 15.26C496.71 15.68 497.13 16.14 497.76 16.52C501.96 19.04 509.36 22.94 510.62 22.94C511.04 22.94 512.09 22.10 512.09 21.81C512.09 21.51 511.88 21.35 510.95 21.30C508.26 21.14 502.17 17.69 499.78 15.17C503.98 12.61 507.59 10.09 510.87 7.36C511.46 6.86 511.67 6.65 511.67 6.14C511.67 5.64 511.41 4.46 511.08 4.46Z"/>
<path d="M497.72 48.94C497.93 48.94 498.23 48.48 498.98 47.68C502.89 43.48 507.97 40.50 511.16 39.07C511.79 38.78 512.09 38.57 512.09 38.15C512.09 37.73 511.67 37.27 511.04 36.89C506.84 34.37 499.44 30.46 498.18 30.46C497.76 30.46 496.71 31.30 496.71 31.60C496.71 31.89 496.92 32.06 497.85 32.10C500.54 32.27 506.63 35.71 509.02 38.23C504.82 40.79 501.21 43.31 497.93 46.04C497.34 46.55 497.13 46.76 497.13 47.26C497.13 47.77 497.39 48.94 497.72 48.94Z"/>
<path d="M460.39 36.03C459.80 36.03 459.29 36.83 459.29 38.21C459.29 39.05 459.80 39.10 459.80 39.52C459.80 39.94 459.71 42.58 459.71 43.21C459.71 43.84 459.76 46.66 459.92 47.29C460.18 48.17 460.55 48.50 461.10 48.50C461.86 48.50 462.36 47.50 462.74 45.86C463.12 44.18 464.17 39.73 464.54 38.59C464.63 38.30 464.80 37.79 465.01 37.79C465.22 37.79 465.30 38.47 465.30 39.01C465.30 39.56 464.96 44.01 464.96 44.85C464.96 47.16 465.64 47.87 466.35 47.87C466.98 47.87 467.36 46.91 467.57 46.36C467.78 45.82 469.37 41.07 469.46 40.82C469.54 40.57 469.58 40.36 469.75 40.36C469.88 40.36 469.96 40.44 469.96 40.61C469.96 40.78 469.79 42.04 469.79 43.04C469.79 45.98 470.42 48 471.81 48C474.25 48 475.84 40.23 475.84 37.71C475.84 37.37 475.72 37.16 475.46 37.16C475.21 37.16 475.09 37.37 475.09 37.71C475.09 40.31 473.49 46.74 472.02 46.74C471.43 46.74 470.97 45.65 470.97 43.21C470.97 41.28 471.56 37.79 471.68 37.37C471.81 36.95 472.02 36.28 472.02 36.11C472.02 35.82 471.18 35.32 470.59 35.32C470.05 35.32 469.71 35.40 469.71 35.69C469.71 35.99 469.63 36.45 469.50 37.04C469.08 38.80 467.74 43.38 467.32 44.39C467.11 44.85 466.73 45.73 466.52 45.73C466.10 45.73 466.01 45.02 466.01 43.09C466.01 42.08 466.35 38.34 466.35 37.67C466.35 36.66 466.01 35.69 465.26 35.69C464.38 35.69 463.96 36.66 463.66 37.79C463.45 38.63 462.15 44.18 461.98 44.85C461.77 45.69 461.48 46.53 461.23 46.53C460.89 46.53 460.85 45.77 460.85 43.80C460.85 40.44 461.31 38.09 461.31 37.50C461.31 36.91 460.97 36.03 460.39 36.03Z"/>
<path d="M224.02 72.26C223.68 72.26 223.18 72.80 223.18 73.14C223.18 73.48 223.22 74.99 223.05 76.08C222.38 80.41 221.37 85.28 220.24 88.05C220.15 88.26 220.03 88.89 220.53 88.89C220.95 88.89 221.41 87.84 221.71 86.92C222.25 87.67 223.55 88.39 224.60 88.39C225.99 88.39 227.08 86.24 227.08 84.69C227.08 82.21 225.07 78.31 225.07 75.20C225.07 74.15 225.32 73.48 225.32 73.18C225.32 72.89 224.35 72.26 224.02 72.26ZM223.89 77.26C224.06 77.93 224.31 78.73 224.60 79.61C225.19 81.46 225.65 83.35 225.65 84.52C225.65 86.20 225.15 87.25 224.06 87.25C223.26 87.25 222.34 86.62 222.34 86.16C222.34 85.95 222.25 85.78 222 85.74C222.42 84.06 223.51 79.23 223.89 77.26Z"/>
<path d="M296.35 235.85C296.10 235.85 295.89 236.48 295.51 237.19C294.63 238.79 293.03 242.61 291.73 245.93C291.44 244.54 291.31 242.90 291.31 241.26C291.31 240.55 291.48 238.83 291.48 238.28C291.48 237.53 291.06 236.56 290.39 236.56C289.84 236.56 289.29 237.86 289.29 238.83C289.29 240.30 289.92 239.84 289.92 240.51C289.92 243.57 290.26 246.14 290.93 247.94C290.43 249.24 290.01 250.34 289.84 250.92C289.67 251.51 289.34 252.18 289.34 252.39C289.34 252.81 289.84 253.23 290.09 253.23C290.34 253.23 290.34 253.02 290.47 252.39C290.60 251.72 291.02 250.42 291.52 249.16C292.07 250.04 292.78 250.59 293.66 250.59C294.63 250.59 295.59 250 296.39 248.82C298.28 246.01 299.16 241.60 299.16 239.71C299.16 239.33 299.04 239.16 298.79 239.16C298.53 239.16 298.41 239.37 298.41 239.71C298.41 242.36 296.39 249.50 293.83 249.50C293.12 249.50 292.57 248.70 292.15 247.48L292.78 245.84C293.58 243.70 296.06 238.74 296.31 238.28C296.56 237.82 296.98 236.98 296.98 236.69C296.98 236.39 296.60 235.85 296.35 235.85Z"/>
<path d="M414.50 204.44C414.50 204.69 414.67 204.82 414.80 204.82C414.92 204.82 415.30 204.57 416.31 204.57C417.32 204.57 427.94 204.57 429.20 204.15C429.71 203.98 430.13 203.64 430.13 203.18C430.13 203.01 430.04 202.97 429.92 202.97C429.79 202.97 428.91 203.14 427.73 203.22C426.56 203.31 416.39 203.39 415.97 203.47C415.18 203.60 414.50 203.94 414.50 204.44ZM414.50 199.19C414.50 199.44 414.67 199.57 414.80 199.57C414.92 199.57 415.30 199.32 416.31 199.32C417.32 199.32 427.94 199.32 429.20 198.90C429.71 198.73 430.13 198.39 430.13 197.93C430.13 197.76 430.04 197.72 429.92 197.72C429.79 197.72 428.91 197.89 427.73 197.97C426.56 198.06 416.39 198.14 415.97 198.22C415.18 198.35 414.50 198.69 414.50 199.19Z"/>
<path d="M221.53 252.31C221.53 252.69 223 252.73 223.71 252.73C224.34 252.73 234.21 252.73 235.60 252.73C236.15 252.73 237.99 252.64 237.99 252.39C237.99 251.97 235.43 251.97 234.89 251.97C233.71 251.97 223.63 251.97 223 251.97C222.20 251.97 221.53 252.01 221.53 252.31Z"/>
<path d="M435.81 213.30C435.31 213.30 435.06 213.38 434.85 213.80C434.22 215.02 433.34 219.68 433.34 222.83C433.34 226.95 434.51 229.26 436.19 229.26C438.17 229.26 439.30 226.07 439.72 223.00C440.14 223.21 440.73 223.38 441.27 223.38C443.37 223.38 444.47 219.43 444.47 217.71C444.47 217.37 444.34 217.16 444.09 217.16C443.84 217.16 443.71 217.37 443.71 217.71C443.71 219.56 442.74 222.33 441.02 222.33C440.60 222.33 440.18 222.16 439.85 221.87C439.89 221.36 439.93 220.90 439.93 220.44C439.93 218.05 439.76 216.07 439.05 215.15C438.59 214.56 436.53 213.30 435.81 213.30ZM436.86 214.77C437.20 214.77 438.08 215.23 438.08 215.99C438.08 216.74 438.00 217.21 438.00 217.71C438.00 219.35 438.17 220.82 438.63 221.78C438.63 224.81 437.41 228.08 436.28 228.08C435.81 228.08 434.72 227.24 434.72 223.30C434.72 219.18 435.94 214.77 436.86 214.77Z"/>
<path d="M434.68 238.23C434.34 238.23 434.01 238.69 433.97 239.03C433.92 239.37 433.42 244.74 433.42 246.55C433.42 250.79 434.18 252.34 435.73 252.34C436.91 252.34 437.75 250.16 438.17 247.98C438.42 250.16 439.17 251.55 440.64 251.55C442.28 251.55 443.12 248.40 443.46 244.99C443.84 245.37 444.30 245.54 444.80 245.54C446.73 245.54 447.74 242.43 447.74 240.71C447.74 240.37 447.62 240.16 447.36 240.16C447.11 240.16 446.99 240.37 446.99 240.75C446.99 242.47 446.06 244.45 444.89 244.45C444.42 244.45 443.92 244.11 443.54 243.57C443.58 242.89 443.63 242.18 443.63 241.55C443.63 238.40 443.25 236.80 442.62 236.80C442.20 236.80 441.86 238.19 441.86 239.83C441.86 241.26 442.03 242.43 442.37 243.36C442.11 247.09 441.40 250.54 440.43 250.54C439.47 250.54 439.01 248.19 439.01 246.09C439.01 243.65 439.64 240.25 439.64 239.91C439.64 239.58 439.51 239.20 439.01 239.20C438.50 239.20 437.87 239.28 437.87 239.74C437.87 240.21 437.91 242.60 437.75 244.57C437.54 247.18 436.65 251.21 435.81 251.21C435.06 251.21 434.64 249.28 434.64 246.80C434.64 243.27 435.77 239.49 435.77 239.20C435.77 238.78 435.18 238.23 434.68 238.23Z"/>
<path d="M197.75 100.74C197.42 100.02 196.70 98.76 195.23 98.76C194.69 98.76 194.23 99.22 193.89 99.90C192.84 101.91 191.96 106.03 191.96 109.18C191.96 113.04 192.97 113.97 194.27 113.97C195.07 113.97 195.57 113.63 196.03 112.62C196.45 111.74 196.79 110.61 197.04 109.43C197.25 112.12 198.26 113.13 199.27 113.13C201.62 113.13 203.21 105.15 203.21 102.71C203.21 102.37 203.09 102.16 202.84 102.16C202.58 102.16 202.46 102.37 202.46 102.71C202.46 105.44 200.86 112.08 199.18 112.08C198.38 112.08 197.96 110.82 197.96 108.51C197.96 107.25 198.47 103.84 198.68 103.13C198.89 102.42 199.14 102.00 199.14 101.79C199.14 101.58 198.30 101.16 198.01 101.16L197.92 101.16C197.88 101.03 197.80 100.90 197.75 100.74ZM195.28 111.74C194.90 112.50 194.52 113.04 194.14 113.04C193.60 113.04 193.22 112.16 193.22 109.72C193.22 107.41 194.44 100.15 195.99 100.15C196.54 100.15 196.79 100.99 196.91 101.70C196.96 102.12 197.00 102.37 197.38 102.42C197.12 105.86 196.49 109.39 195.28 111.74Z"/>
<path d="M426.28 106.89C424.72 106.89 423.04 112.18 423.04 115.62C423.04 120.24 424.60 121.67 426.49 121.67C429.01 121.67 430.85 113.78 430.85 110.71C430.85 110.37 430.73 110.16 430.48 110.16C430.22 110.16 430.10 110.37 430.10 110.75C430.10 113.78 428.38 120.54 426.11 120.54C425.10 120.54 424.43 119.24 424.43 116.63C424.43 113.99 425.44 109.49 426.02 109.49C426.32 109.49 426.86 110.16 427.45 110.16C427.79 110.16 428.12 109.95 428.12 109.37C428.12 108.90 427.20 106.89 426.28 106.89Z"/>
<path d="M426.02 130.01C425.39 130.01 425.02 130.22 424.68 130.98C424.18 132.11 423.21 135.98 423.21 138.46C423.21 141.82 424.01 145.09 426.86 145.09C427.96 145.09 428.92 144.29 429.68 142.91C430.77 140.89 431.86 135.98 431.86 133.71C431.86 133.37 431.74 133.16 431.48 133.16C431.23 133.16 431.11 133.37 431.11 133.71C431.11 137.03 429.22 144.13 426.91 144.13C426.28 144.13 425.31 144.04 424.89 141.56C426.15 139.72 428.25 135.18 428.25 132.03C428.25 131.40 428.08 130.98 427.70 130.64C427.24 130.27 426.53 130.01 426.02 130.01ZM424.72 138.58C424.72 135.05 425.98 131.06 426.70 131.06C426.99 131.06 427.16 131.40 427.16 132.45C427.16 135.22 425.86 138.58 424.76 140.18C424.72 139.72 424.72 139.17 424.72 138.58Z"/>
<path d="M439.51 108.99C439.09 108.99 438.92 109.16 438.92 109.58C438.92 110.00 438.55 116.55 438.55 117.60C438.55 120.45 439.01 122.13 440.77 122.13C442.41 122.13 443.38 119.19 443.92 116.72C444.13 120.33 444.97 121.25 446.15 121.25C446.65 121.25 447.16 121 447.62 120.29C449.21 117.72 450.14 112.77 450.14 110.71C450.14 110.37 450.01 110.16 449.76 110.16C449.51 110.16 449.38 110.37 449.38 110.71C449.38 114.70 447.37 120.12 446.32 120.12C445.60 120.12 445.01 118.73 445.01 115.79C445.01 114.28 445.64 109.66 445.73 109.20C445.81 108.74 446.11 108.32 446.11 108.15C446.11 107.98 445.64 107.27 445.18 107.27C444.72 107.27 444.22 107.43 444.22 107.77C444.22 115.88 441.86 121.21 440.73 121.21C440.06 121.21 439.85 120.66 439.85 117.64C439.85 114.78 440.39 111.55 440.52 111.05C440.65 110.54 440.77 109.95 440.77 109.79C440.77 109.37 440.14 108.99 439.51 108.99Z"/>
<path d="M257.71 252.37C257.38 252.83 257.92 253.17 258.26 252.75C258.60 252.37 258.89 252.12 259.31 251.78C262.04 249.60 266.58 255.44 270.82 251.99C271.28 251.62 271.74 251.20 272.04 250.90C272.37 250.52 271.91 250.19 271.57 250.44C271.36 250.61 271.11 250.82 270.82 251.03C267.16 253.63 263.13 248.47 259.86 250.48C258.97 251.03 258.18 251.74 257.71 252.37Z"/>
<path d="M487.82 30.78C487.15 30.78 486.69 31.28 486.69 31.91C486.69 32.54 487.23 33.13 487.82 33.13C488.41 33.13 488.91 32.67 488.91 32.12C488.91 31.58 488.49 30.78 487.82 30.78ZM487.57 39.35C487.15 39.35 486.98 40.40 486.06 41.74C484.92 43.38 484.25 43.46 484.25 44.13C484.25 44.30 484.42 44.60 484.71 44.60C485.47 44.60 488.37 41.11 488.37 40.35C488.37 40.02 487.74 39.35 487.57 39.35Z"/>
<path d="M447.97 79.29C447.97 79.63 448.52 80.01 449.02 80.01C449.53 80.01 449.74 79.80 450.24 79.21C451.75 77.44 453.35 75.39 455.91 71.19C457.97 73.79 459.61 76.73 460.41 79.46C460.66 80.34 460.62 80.59 460.91 80.59C461.20 80.59 462.04 79.54 462.04 79.12C462.04 77.86 459.73 73.92 457.21 69.72C456.84 69.09 456.37 68.67 455.95 68.67C455.53 68.67 455.32 68.96 455.03 69.59C453.60 72.78 451.54 75.85 449.23 78.03C448.44 78.79 447.97 79.08 447.97 79.29Z"/>
<path d="M431.81 155.41C431.09 155.41 430.67 155.66 430.67 157.00C430.67 157.63 430.80 157.84 430.80 158.98C430.80 159.52 430.76 160.28 430.76 161.20C430.76 162.04 430.84 164.14 430.92 164.86C431.09 166.33 431.51 167.55 432.56 167.55C433.28 167.55 433.57 167.13 433.78 166.37C433.91 165.82 435.00 161.25 435.38 159.82C435.59 159.06 435.71 158.68 435.92 158.68C436.01 158.68 436.05 158.85 436.05 159.19C436.05 159.94 436.05 160.45 436.05 161.08C436.09 165.70 437.01 167.76 438.44 167.76C440.75 167.76 442.35 159.23 442.35 156.71C442.35 156.37 442.22 156.16 441.97 156.16C441.72 156.16 441.59 156.37 441.59 156.71C441.59 158.47 441.00 161.04 440.37 163.14C439.53 165.95 438.95 166.41 438.48 166.41C438.02 166.41 437.31 165.24 437.31 162.30C437.31 159.36 437.94 154.95 437.94 154.65C437.94 154.23 437.35 153.56 437.01 153.43C436.64 153.27 435.84 153.27 435.71 153.64C435.63 153.94 433.99 161.79 433.19 164.69C433.02 165.32 432.86 165.66 432.65 165.66C432.18 165.66 432.06 164.69 432.06 162.25C432.06 158.14 432.65 156.46 432.65 156.12C432.65 155.79 432.18 155.41 431.81 155.41Z"/>
<path d="M431.34 177.53C430.88 177.53 430.71 180.01 430.71 181.78C430.71 187.45 431.18 189.46 432.90 189.46C434.20 189.46 435.67 185.64 436.59 182.11C436.97 182.36 437.43 182.45 437.98 182.45C439.87 182.45 441.13 180.47 441.13 178.71C441.13 178.37 441.00 178.16 440.75 178.16C440.50 178.16 440.37 178.37 440.37 178.71C440.37 180.22 439.24 181.57 437.98 181.57C437.52 181.57 437.14 181.40 436.89 181.10C437.39 179.13 437.69 177.32 437.69 176.61C437.69 175.94 436.76 175.35 436.43 175.35C435.88 175.35 435.42 177.32 435.42 179.05C435.42 179.80 435.50 180.39 435.67 180.85C435.00 184.34 433.82 188.37 433.07 188.37C432.31 188.37 431.93 186.73 431.93 183.79C431.93 182.41 432.48 179.26 432.48 178.75C432.48 178.25 431.81 177.53 431.34 177.53Z"/>
<path d="M442.99 130.36C441.39 130.36 440.18 132.04 440.18 134.14C440.18 136.91 442.19 138.09 443.91 138.09C444.50 138.09 445.17 138.00 445.89 137.83L445.89 138.09C445.89 141.53 445.85 142.87 447.19 142.87C447.40 142.87 447.44 142.75 447.44 142.62C447.44 142.33 446.94 141.87 446.94 138.51C446.94 138.21 446.94 137.88 446.98 137.58C448.95 137.04 451.01 136.32 452.06 136.32C452.78 136.32 453.49 136.36 453.49 136.20C453.49 136.03 452.78 135.40 451.52 135.40C450.63 135.40 448.79 136.15 447.02 136.66C447.36 133.76 448.24 131.07 448.41 130.74C448.58 130.36 448.58 130.02 447.95 130.02C447.32 130.02 447.23 130.19 447.11 130.95C447.02 131.45 446.69 132.75 446.43 133.84C446.06 132.12 445.05 130.36 442.99 130.36ZM444.71 137.04C442.99 137.04 441.02 135.99 441.02 133.76C441.02 132.25 441.81 131.45 442.99 131.45C445.01 131.45 445.72 133.93 445.85 136.91C445.43 136.99 445.05 137.04 444.71 137.04Z"/>
<path d="M209.19 38.35C208.65 38.35 208.18 38.98 208.18 39.53C208.18 40.08 208.60 40.58 209.28 40.58C209.95 40.58 210.24 40.20 210.24 39.49C210.24 38.77 209.74 38.35 209.19 38.35ZM209.19 30.00C208.65 30.00 208.39 30.46 208.39 31.00C208.39 31.55 208.90 32.26 209.49 32.26C210.07 32.26 210.66 31.80 210.66 31.17C210.66 30.54 209.74 30.00 209.19 30.00Z"/>
<path d="M451.61 89.23C451.44 89.23 451.44 89.69 451.28 90.15C450.56 92.13 449.22 94.94 448.59 96.16C448.46 96.41 448.34 96.58 448.34 96.75C448.34 97.04 448.50 97.25 448.71 97.25C449.05 97.25 449.30 96.96 449.60 96.41C449.81 96.03 452.24 91.04 452.24 90.15C452.24 89.65 451.78 89.23 451.61 89.23ZM453.67 89.82C453.50 89.82 453.46 90.28 453.29 90.74C452.58 92.72 451.36 95.49 450.73 96.71C450.60 96.96 450.39 97.34 450.39 97.50C450.39 97.80 450.56 98.01 450.77 98.01C451.11 98.01 451.28 97.84 451.61 97.29C452.45 95.91 454.38 91.67 454.38 90.78C454.38 90.28 453.84 89.82 453.67 89.82Z"/>
<path d="M234.66 89.54C234.66 89.79 234.83 89.92 234.96 89.92C235.08 89.92 235.46 89.67 236.47 89.67C237.48 89.67 241.22 89.67 242.48 89.25C242.98 89.08 243.40 88.74 243.40 88.28C243.40 88.11 243.32 88.07 243.19 88.07C243.06 88.07 242.18 88.24 241.01 88.32C239.83 88.41 236.55 88.49 236.13 88.57C235.34 88.70 234.66 89.04 234.66 89.54Z"/>
<path d="M441.11 196.65C440.73 196.65 440.69 197.32 440.44 198.20C440.23 198.96 439.05 202.19 438.84 202.66C438.63 203.12 438.63 203.37 438.97 203.62C439.30 203.87 439.60 203.66 439.85 203.24C440.39 202.28 441.99 199.09 441.99 197.87C441.99 197.36 441.40 196.65 441.11 196.65Z"/>
<path d="M276.52 200.66C276.31 200.83 276.39 201.04 276.73 201.62C276.81 201.83 277.07 202.25 277.36 202.72C276.65 202.88 275.89 203.09 275.39 203.30C274.84 203.51 274.67 203.77 274.80 204.02C274.92 204.27 275.13 204.23 275.55 204.06C275.89 203.93 276.35 203.81 276.86 203.68L276.39 204.56C276.23 204.94 276.14 205.15 276.35 205.36C276.65 205.61 276.98 205.32 277.15 204.98C277.36 204.56 277.61 204.10 277.91 203.64C278.37 204.35 278.83 204.98 279.00 205.15C279.38 205.53 279.71 205.66 279.84 205.49C279.96 205.32 279.96 205.11 279.71 204.86C279.54 204.69 279.04 203.93 278.66 203.35C279.21 203.26 279.71 203.22 280.05 203.22C280.51 203.22 280.93 203.09 280.93 202.67C280.93 202.46 280.68 202.30 280.34 202.30C279.96 202.30 279.38 202.34 278.75 202.46C279.00 202.13 279.25 201.79 279.54 201.46C279.80 201.12 279.80 200.83 279.67 200.62C279.54 200.41 279.33 200.32 279.12 200.57C278.75 201.04 278.33 201.54 277.95 202.09C277.74 201.62 277.44 201.16 277.36 200.99C277.19 200.74 276.73 200.49 276.52 200.66Z"/>
<path d="M486.77 53.64C486.60 54.02 484.76 57.84 484.59 58.13C484.42 58.43 484.17 58.85 484.55 59.10C484.92 59.35 485.22 59.39 485.55 58.89C485.89 58.39 487.49 55.66 487.65 55.24C487.91 54.69 488.07 54.31 487.61 53.85C487.07 53.30 486.94 53.26 486.77 53.64Z"/>
<path d="M459.42 58.14C459.97 59.28 461.98 60.70 463.66 61.29C464.25 61.50 464.54 61.04 464.08 60.79C462.53 59.91 461.10 58.02 460.26 56.34C459.92 55.66 458.75 56.92 459.42 58.14Z"/>
<path d="M226.40 19.82C225.81 19.82 225.18 20.45 225.18 21.03C225.18 21.62 225.90 22.29 226.44 22.29C227.03 22.29 227.62 21.24 227.62 20.82C227.62 20.40 226.99 19.82 226.40 19.82Z"/>

</svg>