<svg xmlns="http://www.w3.org/2000/svg" width="96.554" height="13.612" viewBox="0 0 96.554 13.612">
  <g id="Group_32" data-name="Group 32" transform="translate(-1190 -1194.855)">
    <g id="_029-instagram" data-name="029-instagram" transform="translate(1190 1194.855)">
      <path id="Path_2" data-name="Path 2" d="M9.886,0H4.195A4.131,4.131,0,0,0,0,4.055v5.5a4.131,4.131,0,0,0,4.195,4.055H9.886a4.131,4.131,0,0,0,4.195-4.055v-5.5A4.131,4.131,0,0,0,9.886,0Zm2.778,9.557a2.733,2.733,0,0,1-2.778,2.686H4.195A2.733,2.733,0,0,1,1.417,9.557v-5.5A2.733,2.733,0,0,1,4.195,1.369H9.886a2.733,2.733,0,0,1,2.778,2.686v5.5Z" fill="#fff"/>
      <path id="Path_3" data-name="Path 3" d="M136.642,133a3.917,3.917,0,1,0,3.642,3.907A3.786,3.786,0,0,0,136.642,133Zm0,6.295a2.393,2.393,0,1,1,2.225-2.387A2.311,2.311,0,0,1,136.642,139.295Z" transform="translate(-129.601 -130.101)" fill="#fff"/>
      <circle id="Ellipse_1" data-name="Ellipse 1" cx="0.873" cy="0.873" r="0.873" transform="translate(9.817 2.456)" fill="#fff"/>
    </g>
    <path id="_008-twitter" data-name="008-twitter" d="M13.025,35.717a5.4,5.4,0,0,1-.913.295,2.711,2.711,0,0,0,.751-1.145h0a.147.147,0,0,0-.218-.166h0a5.4,5.4,0,0,1-1.4.552.371.371,0,0,1-.087.01.379.379,0,0,1-.244-.089,2.928,2.928,0,0,0-1.888-.682,3.176,3.176,0,0,0-.9.134,2.7,2.7,0,0,0-1.863,1.907A2.794,2.794,0,0,0,6.2,37.537a.1.1,0,0,1-.026.077.108.108,0,0,1-.079.034h-.01a7.584,7.584,0,0,1-5.143-2.63h0a.153.153,0,0,0-.245.018h0a2.641,2.641,0,0,0-.386,1.373,2.672,2.672,0,0,0,.851,1.947,2.626,2.626,0,0,1-.651-.241h0a.149.149,0,0,0-.222.123h0a2.73,2.73,0,0,0,1.667,2.52H1.892a2.678,2.678,0,0,1-.481-.044h0a.145.145,0,0,0-.17.184h0A2.826,2.826,0,0,0,3.5,42.761a5.433,5.433,0,0,1-2.949.857H.221a.217.217,0,0,0-.214.158.213.213,0,0,0,.108.239,8.1,8.1,0,0,0,3.935,1.016,8.24,8.24,0,0,0,3.363-.683,7.409,7.409,0,0,0,2.461-1.765,7.68,7.68,0,0,0,1.507-2.416,7.344,7.344,0,0,0,.512-2.644v-.042a.458.458,0,0,1,.182-.362,5.493,5.493,0,0,0,1.135-1.192h0a.145.145,0,0,0-.185-.21Z" transform="translate(1230.867 1161.885)" fill="#fff"/>
    <path id="_001-youtube" data-name="001-youtube" d="M12.323,67.393H3.23A3.164,3.164,0,0,0,0,70.486v4.352A3.164,3.164,0,0,0,3.23,77.93h9.093a3.164,3.164,0,0,0,3.23-3.093V70.486A3.164,3.164,0,0,0,12.323,67.393Zm-2.185,5.48L5.886,74.815a.17.17,0,0,1-.244-.148V70.662a.171.171,0,0,1,.248-.146l4.253,2.063A.16.16,0,0,1,10.139,72.873Z" transform="translate(1271 1128.986)" fill="#fff"/>
  </g>
</svg>
