<svg xmlns="http://www.w3.org/2000/svg" width="49.2" height="49.2" viewBox="0 0 49.2 49.2">
  <g id="iconfinder_codepen_3069645" data-name="iconfinder codepen 3069645" transform="translate(-0.005 0.001)">
    <path id="Exclusion_1" data-name="Exclusion 1" d="M24.6,49.2a24.6,24.6,0,1,1,17.4-7.2A24.6,24.6,0,0,1,24.6,49.2Zm-.97-39.363L9.59,18.729h0v.082h0v.1h0V29.765h0v.082h.082l14.251,9.5a1.3,1.3,0,0,0,1.476,0l14.251-9.5h.082a.131.131,0,0,1,0-.082.246.246,0,0,0,0-.115h0a.672.672,0,0,0,0-.18V19.844a.672.672,0,0,0,0-.18h0V19.5h0v-.082h0l-14.1-9.582A1.858,1.858,0,0,0,23.625,9.836Zm2.3,26.506V30.094l5.822-3.854,4.674,3.132-10.5,6.986Zm-2.673,0h0l-10.5-7,4.69-3.1,5.805,3.887v6.248ZM24.6,27.765h0L19.856,24.6,24.6,21.435,29.335,24.6ZM37.5,26.847h0L34.222,24.6l3.28-2.247Zm-25.812,0V22.353l3.28,2.247-3.28,2.23ZM31.745,22.96h0L25.94,19.073V12.858l10.5,7Zm-14.284,0h0l-4.69-3.1,10.5-7v6.248L17.462,22.96Z" transform="translate(0)" fill="#fff"/>
  </g>
</svg>
